<?xml version="1.0" standalone="no"?>
<!DOCTYPE svg PUBLIC "-//W3C//DTD SVG 1.1//EN" "http://www.w3.org/Graphics/SVG/1.1/DTD/svg11.dtd" >
<svg>
<metadata>
Created by FontForge 20090622 at Fri Mar 23 10:44:44 2018
 By deploy user
CC BY-NC-SA NOTsoNOISY Guillaume Reymond
</metadata>
<defs>
<font id="NotsolaserBold" horiz-adv-x="520" >
  <font-face 
    font-family="Notsolaser"
    font-weight="700"
    font-stretch="normal"
    units-per-em="1000"
    panose-1="0 0 0 0 0 0 0 0 0 0"
    ascent="800"
    descent="-200"
    x-height="513.5"
    cap-height="700"
    bbox="50.8824 -239 468.471 977.279"
    underline-thickness="0"
    underline-position="0"
    unicode-range="U+000A-U+F8FF"
  />
<missing-glyph 
 />
    <glyph glyph-name="AE.liga" unicode="AE" 
d="M414 284h-69v-199h69q22 0 38 -16t16 -38.5t-16 -38t-38 -15.5h-123q-23 0 -38.5 15.5t-15.5 38.5v99h-56l-22 -110q-3 -19 -18.5 -31.5t-34.5 -12.5q-5 0 -10 2q-22 4 -34.5 22.5t-8.5 40.5l31 154v1l92 460q4 19 19 31.5t34 12.5h185q22 0 38 -16t16 -38.5t-16 -38
t-38 -15.5h-69v-200h69q22 0 38 -15.5t16 -38t-16 -38.5t-38 -16zM237 239v166l-34 -166h34z" />
    <glyph glyph-name="ae.liga" unicode="ae" 
d="M414 192h-100v-56l21 -42l9 -9h17l14 15q16 16 38.5 16t38.5 -16t16 -38.5t-16 -38.5l-31 -31q-16 -15 -38 -15h-62q-16 0 -30 9q-14 -9 -31 -9q-7 0 -15 2q-9 -2 -16 -2h-61q-23 0 -39 15l-30 31q-7 6 -11 14l-30 62q-6 11 -6 24v92q0 13 6 25l30 61q4 8 11 14l30 31
q16 16 39 16h35l-18 36l-9 9h-17l-14 -15q-16 -16 -38.5 -16t-38.5 16t-16 38.5t16 38.5l31 31q16 15 38 15h61q23 0 38 -15l24 -24l23 24q16 15 38 15h31q23 0 39 -15l30 -31q7 -6 11 -14l30 -62q6 -11 6 -24v-123q0 -22 -16 -38t-38 -16zM314 356v-56h45v56l-22 44l-2 -2z
M190 85h16v168h-16l-8 -8l-22 -43v-66l22 -42z" />
    <glyph glyph-name="OE.liga" unicode="OE" 
d="M411 284h-69v-199h69q22 0 38 -16t16 -38.5t-16 -38.5t-38 -16h-180q-13 0 -24 6l-62 31q-7 4 -14 10l-30 31q-7 6 -11 14l-30 61q-6 12 -6 25v369q0 13 6 24l30 62q4 7 11 14l30 30q7 7 14 11l62 30q11 6 24 6h180q22 0 38 -16t16 -38.5t-16 -38t-38 -15.5h-69v-200h69
q22 0 38 -15.5t16 -38t-16 -38.5t-38 -16zM233 90v496l-31 -16l-18 -18l-22 -42v-343l22 -43l18 -18z" />
    <glyph glyph-name="oe.liga" unicode="oe" 
d="M451 100q16 -16 16 -38.5t-16 -38.5l-31 -31q-15 -15 -38 -15h-61q-23 0 -39 15l-23 24l-23 -24q-16 -15 -38 -15h-31q-23 0 -39 15l-30 31q-7 6 -11 14l-30 62q-6 11 -6 24v246q0 13 6 24l30 62q4 8 11 14l30 31q16 15 39 15h31q22 0 38 -15l23 -24l23 24q16 15 39 15
h30q23 0 39 -15l30 -31q7 -6 11 -14l30 -62q6 -11 6 -24v-123q0 -22 -16 -38t-38 -16h-100v-56l21 -42l9 -9h17l14 15q16 16 38.5 16t38.5 -16zM313 356v-56h46v56l-23 44l-2 -2zM205 136v220l-23 44l-1 -2l-21 -42v-220l21 -42l1 -2l2 2z" />
    <glyph glyph-name=".notdef" 
 />
    <glyph glyph-name=".notdef" 
 />
    <glyph glyph-name=".null" horiz-adv-x="0" 
 />
    <glyph glyph-name="nonmarkingreturn" 
 />
    <glyph glyph-name="LF" unicode="&#xa;" 
 />
    <glyph glyph-name="controlCR" unicode="&#xd;" 
 />
    <glyph glyph-name="space" unicode=" " 
 />
    <glyph glyph-name="exclam" unicode="!" 
d="M259.5 700q22.5 0 38 -16t15.5 -38v-400q0 -22 -15.5 -38t-38 -16t-38.5 16t-16 38v400q0 22 16 38t38.5 16zM259.5 146q22.5 0 38 -15.5t15.5 -38.5v-61q0 -23 -15.5 -38.5t-38 -15.5t-38.5 15.5t-16 38.5v61q0 23 16 38.5t38.5 15.5z" />
    <glyph glyph-name="quotedbl" unicode="&#x22;" 
d="M167.5 700q22.5 0 38 -16t15.5 -38v-185q0 -22 -15.5 -38t-38 -16t-38.5 16t-16 38v185q0 22 16 38t38.5 16zM351.5 700q22.5 0 38.5 -16t16 -38v-185q0 -22 -16 -38t-38.5 -16t-38 16t-15.5 38v185q0 22 15.5 38t38 16z" />
    <glyph glyph-name="numbersign" unicode="#" 
d="M413 346h-5l-15 -77h20q22 0 38 -15.5t16 -38t-16 -38.5t-38 -16h-42l-28 -141q-4 -19 -19 -31.5t-34 -12.5q-6 0 -11 2q-22 4 -34.5 22.5t-7.5 40.5l23 120h-73l-29 -141q-3 -19 -18.5 -31t-34.5 -12q-5 0 -10 1q-22 4 -34.5 22.5t-8.5 40.5l26 128q-27 16 -27 46
q0 21 13.5 36t33.5 18l15 77h-8q-22 0 -38 15.5t-16 38t16 38.5t38 16h30l40 202q4 22 23 34.5t41 8.5t34.5 -23t7.5 -41l-36 -181h74l41 202q4 22 22.5 34.5t40.5 8.5t34.5 -23t8.5 -41l-37 -184q17 -5 27.5 -19t10.5 -32q0 -23 -16 -38.5t-38 -15.5zM282 269l15 77h-73
l-16 -77h74z" />
    <glyph glyph-name="dollar" unicode="$" 
d="M461 240q6 -12 6 -25v-61q0 -13 -6 -24l-31 -62q-4 -8 -10 -14l-30 -31q-7 -6 -15 -10l-61 -31h-1v-43q0 -23 -16 -39t-38 -16t-38 16t-16 39v43h-1l-62 31q-7 4 -14 10l-30 31q-7 6 -11 14l-30 62q-10 20 -3 41t27 31t41.5 3t31.5 -27l27 -54l18 -18l6 -3v186q0 1 -1 1
l-61 30q-8 4 -15 11l-30 30q-7 7 -11 15l-30 61q-6 11 -6 24v62q0 13 6 24l30 62q4 7 11 14l30 30q7 7 15 11l61 30l1 1v43q0 22 16 38t38.5 16t38 -16t15.5 -38v-43q0 -1 1 -1l62 -30q7 -4 14 -11l30 -30q7 -7 11 -14l30 -62q10 -20 3 -41.5t-27 -31.5t-41.5 -3t-31.5 27
l-27 54l-18 18l-6 3v-186h1l62 -31q7 -4 14 -10l30 -31q7 -6 11 -14zM205 411v162l-6 -3l-18 -18l-21 -42v-36l21 -42l18 -18zM359 167v35l-22 43l-18 18l-6 3v-163l6 3l18 18z" />
    <glyph glyph-name="percent" unicode="%" 
d="M442.5 630q19.5 -12 24.5 -33.5t-7 -40.5l-308 -492q-16 -26 -46 -26q-15 0 -29 8q-19 12 -24 34t7 41l308 492q12 19 33.5 24t41 -7zM99 484l-31 31q-16 16 -16 39v61q0 22 16 38l31 31q16 16 38 16h61q23 0 39 -16l31 -31q15 -16 15 -38v-61q0 -23 -15 -39l-31 -31
q-16 -15 -39 -15h-61q-22 0 -38 15zM160 592v-15h15v15h-15zM452 161q16 -16 16 -38v-61q0 -23 -16 -39l-31 -31q-16 -15 -38 -15h-61q-23 0 -39 15l-31 31q-15 16 -15 39v61q0 22 15 38l31 31q16 16 39 16h61q22 0 38 -16zM359 85v15h-14v-15h14z" />
    <glyph glyph-name="ampersand" unicode="&#x26;" 
d="M460 59q12 -20 6.5 -41.5t-24.5 -33.5q-13 -7 -28 -7q-31 0 -47 26l-10 17q-5 -4 -11 -7l-62 -31q-11 -5 -24 -5h-61q-13 0 -25 5l-61 31q-16 8 -24 24l-31 62q-6 11 -6 24v215q0 13 6 25l31 61q5 11 15 18l-14 22l-2 4l-30 61q-12 24 0 49l30 61q9 16 25 25l61 30
q13 7 28 6h3q11 -1 21 -6l59 -31q16 -8 24 -24l30 -61q12 -24 0 -49l-30 -61q-6 -12 -16 -19l-46 -35l104 -173l14 29q10 20 31.5 27.5t41.5 -3t27 -31.5t-3 -41l-45 -91zM177 575l-10 -22l18 -35l6 -10l26 20l13 26l-11 21l-20 10zM281 102l12 24l-127 211l-6 -12v-189
l17 -34l34 -17h36z" />
    <glyph glyph-name="quotesingle" unicode="'" 
d="M259.5 700q22.5 0 38 -16t15.5 -38v-185q0 -22 -15.5 -38t-38 -16t-38.5 16t-16 38v185q0 22 16 38t38.5 16z" />
    <glyph glyph-name="parenleft" unicode="(" 
d="M352 -7q22 0 38 -16t16 -38.5t-16 -38.5t-38 -16h-62q-13 0 -24 6l-62 31q-7 4 -14 10l-30 31q-7 6 -11 14l-30 61q-6 12 -6 25v553q0 13 6 24l30 62q4 8 11 14l30 31q7 6 14 10l62 31q11 5 24 5h62q22 0 38 -16t16 -38t-16 -38t-38 -16h-49l-42 -21l-19 -19l-21 -42
v-528l21 -42l19 -18l42 -21h49z" />
    <glyph glyph-name="parenright" unicode=")" 
d="M400 639q6 -11 6 -24v-554q0 -12 -6 -24l-30 -61q-4 -8 -11 -14l-30 -31q-7 -6 -15 -10l-61 -31q-11 -6 -24 -6h-62q-22 0 -38 16t-16 38.5t16 38.5t38 16h49l42 21l18 18l22 42v528l-22 42l-18 19l-42 21h-49q-22 0 -38 16t-16 38t16 38t38 16h62q13 0 24 -6l61 -30
q8 -4 15 -10l30 -31q7 -6 11 -14z" />
    <glyph glyph-name="asterisk" unicode="*" 
d="M382 506q19 -12 23 -34t-8 -41q-16 -24 -45 -24q-17 0 -30 9l-8 5v-21q0 -23 -16 -39t-38.5 -16t-38.5 16t-16 39v21l-8 -5q-13 -9 -30 -9q-29 0 -45 24q-12 19 -8 41t23 34l25 17l-25 16q-19 13 -23 35t8.5 40.5t34.5 23t40 -8.5l8 -5v22q0 22 16 38t38.5 16t38.5 -16
t16 -38v-22l8 5q18 13 40 8.5t34.5 -23t8.5 -40.5t-23 -35l-25 -16z" />
    <glyph glyph-name="plus" unicode="+" 
d="M414 362q22 0 38 -16t16 -38.5t-16 -38.5t-38 -16h-100v-99q0 -23 -16 -38.5t-38 -15.5t-38 15.5t-16 38.5v99h-100q-22 0 -38 16t-16 38.5t16 38.5t38 16h100v99q0 23 16 38.5t38 15.5t38 -15.5t16 -38.5v-99h100z" />
    <glyph glyph-name="comma" unicode="," 
d="M290.5 146q22.5 0 38.5 -15.5t16 -38.5v-61q0 -13 -6 -25l-61 -123q-15 -29 -49 -29q-13 0 -24 5q-20 10 -27 31.5t3 41.5l56 112v48q0 23 15.5 38.5t38 15.5z" />
    <glyph glyph-name="hyphen" unicode="-" 
d="M414 362q22 0 38 -16t16 -38.5t-16 -38.5t-38 -16h-308q-22 0 -38 16t-16 38.5t16 38.5t38 16h308z" />
    <glyph glyph-name="period" unicode="." 
d="M259.5 146q22.5 0 38 -15.5t15.5 -38.5v-61q0 -23 -15.5 -38.5t-38 -15.5t-38.5 15.5t-16 38.5v61q0 23 16 38.5t38.5 15.5z" />
    <glyph glyph-name="slash" unicode="/" 
d="M432 789q21 -8 30 -28.5t1 -41.5l-307 -800q-6 -16 -20 -25.5t-31 -9.5q-10 0 -19 4q-21 8 -30 28.5t-1 41.5l307 800q8 20 28.5 29.5t41.5 1.5z" />
    <glyph glyph-name="zero" unicode="0" 
d="M467 533q1 -5 1 -8v-1.5v-0.5v-369q0 -13 -6 -24l-31 -62q-3 -8 -10 -14l-30 -31q-7 -6 -15 -10l-61 -31q-11 -5 -24 -5h-62q-13 0 -24 5l-62 31q-7 4 -14 10l-30 31q-7 6 -11 14l-30 61v1l-0.5 0.5l-0.5 0.5q-2 5 -3 9l-1 4t-1 8v0.5v1.5v369q0 13 6 24l30 62q4 7 11 14
l30 30q7 7 14 11l62 30q11 6 24 6h62q13 0 24 -6l62 -30q7 -4 14 -11l30 -30q7 -7 11 -14l30 -61v-1l1 -1q2 -5 3 -10zM182 552l-22 -42v-206l189 226l-11 22l-18 18l-42 22h-36l-42 -22zM338 124l21 43v206l-188 -227l11 -22l18 -18l42 -21h36l42 21z" />
    <glyph glyph-name="one" unicode="1" 
d="M414 85q22 0 38 -16t16 -38.5t-16 -38t-38 -15.5h-308q-22 0 -38 15.5t-16 38t16 38.5t38 16h100v392l-56 -78q-13 -18 -35 -22t-40.5 9t-22 35.5t9.5 40.5l154 215q10 15 27 20.5t33.5 0t27 -20t10.5 -31.5v-561h100z" />
    <glyph glyph-name="two" unicode="2" 
d="M432 608l30 -61q6 -11 6 -24v-62q0 -13 -6 -24l-30 -61q-4 -7 -9 -13l-250 -278h241q22 0 38 -16t16 -38.5t-16 -38t-38 -15.5h-308q-22 0 -38 15.5t-16 38.5v61q0 21 14 37l272 302l22 43v36l-22 42l-18 18l-42 22h-36l-42 -22l-18 -18l-27 -53q-10 -21 -31.5 -28
t-41.5 3t-27 31.5t3 41.5l31 62q4 7 10 14l30 30q7 7 15 11l61 30q11 6 24 6h62q13 0 24 -6l62 -30q7 -4 14 -11l30 -30q7 -7 11 -15z" />
    <glyph glyph-name="three" unicode="3" 
d="M431 376q-3 -8 -10 -15l-23 -23l23 -23q7 -6 10 -14l31 -61q6 -12 6 -25v-61q0 -13 -6 -25l-31 -61q-3 -8 -10 -14l-30 -31q-7 -6 -15 -10l-61 -31q-11 -5 -24 -5h-62q-13 0 -24 5l-62 31q-7 4 -14 10l-30 31q-7 6 -11 14l-30 61q-10 21 -3 42t27 31t41.5 3t31.5 -27
l27 -54l18 -18l42 -21h36l42 21l18 18l22 43v35l-22 43l-18 18l-42 21h-49q-22 0 -38 16t-16 38.5t16 38t38 15.5h49l42 22l18 18l22 42v36l-22 42l-18 18l-42 22h-36l-42 -22l-18 -18l-27 -54q-10 -20 -31.5 -27t-41.5 3t-27 31.5t3 41.5l30 62q4 7 11 14l30 30q7 7 14 11
l62 30q11 6 24 6h62q13 0 24 -6l61 -30q8 -4 15 -11l30 -30q7 -7 10 -14l31 -62q6 -11 6 -24v-62q0 -13 -6 -24z" />
    <glyph glyph-name="four" unicode="4" 
d="M106 161q-22 0 -38 16t-16 38v62q0 11 4 21l154 369q6 15 20 24t30 9h61q23 0 39 -16t16 -38l-2 -377h40q22 0 38 -15.5t16 -38t-16 -38.5t-38 -16h-40l-1 -131q0 -22 -16 -38t-38 -16q-23 1 -38.5 17t-15.5 38v130h-159zM267 521l-105 -252h104z" />
    <glyph glyph-name="five" unicode="5" 
d="M86 288q-16 6 -25 20t-9 30v308q0 22 16 38t38 16h308q22 0 38 -16t16 -38.5t-16 -38t-38 -15.5h-254v-151l14 7q12 6 24 6h93q13 0 24 -6l62 -31q7 -4 14 -10l30 -30q7 -7 11 -15l30 -61q6 -11 6 -24v-123q0 -13 -6 -25l-30 -61q-4 -8 -11 -14l-30 -31q-7 -6 -14 -10
l-62 -31q-11 -5 -24 -5h-62q-13 0 -24 5l-61 31q-8 4 -15 10l-30 31q-7 6 -10 14l-31 61q-10 21 -3 42t27 31t41.5 3t31.5 -27l27 -54l18 -18l42 -21h36l42 21l18 18l22 43v97l-22 42l-18 18l-42 21h-67l-42 -21l-24 -24q-26 -26 -59 -12z" />
    <glyph glyph-name="six" unicode="6" 
d="M88 68l-30 61q-6 12 -6 25v122v247q0 13 6 24l30 62q4 7 11 14l30 30q7 7 14 11l62 30q11 6 24 6h62q13 0 24 -6l61 -30q8 -4 15 -11l30 -30q7 -7 10 -14l31 -62q10 -20 3 -41.5t-27 -31.5t-41.5 -3t-31.5 27l-27 54l-18 18l-42 22h-36l-42 -22l-19 -18l-21 -42v-84
l45 22q11 6 24 6h62q12 0 24 -6l61 -31q8 -3 14 -10l31 -30q6 -7 10 -15l31 -61q6 -11 6 -24v-123q0 -13 -6 -25l-31 -61q-4 -8 -10 -14l-31 -31q-6 -6 -14 -10l-61 -31q-12 -5 -24 -5h-62q-13 0 -24 5l-62 31q-7 4 -14 10l-30 31q-7 6 -11 14zM160 264v-97l22 -43l18 -18
l42 -21h36l42 21l18 18l21 43v97l-21 42l-18 18l-42 22h-36l-42 -22l-18 -18z" />
    <glyph glyph-name="seven" unicode="7" 
d="M106 592q-22 0 -38 15.5t-16 38t16 38.5t38 16h308q22 0 38 -16t16 -38v-62q0 -11 -5 -22l-75 -170h26q22 0 38 -15.5t16 -38t-16 -38.5t-38 -16h-74l-123 -275q-6 -15 -19.5 -24t-29.5 -9q-12 0 -22 5q-21 9 -29 30t1 42l103 231h-84q-23 0 -38.5 16t-15.5 38.5t15.5 38
t38.5 15.5h132l89 200h-252z" />
    <glyph glyph-name="eight" unicode="8" 
d="M431 609l31 -62q6 -11 6 -24v-62q0 -13 -6 -24l-31 -62q-3 -7 -10 -14l-23 -23l23 -23q7 -6 10 -14l31 -61q6 -12 6 -25v-61q0 -13 -6 -25l-31 -61q-3 -8 -10 -14l-30 -31q-7 -6 -15 -10l-61 -31q-11 -5 -24 -5h-62q-13 0 -24 5l-62 31q-7 4 -14 10l-30 31q-7 6 -11 14
l-30 62q-6 11 -6 24v61q0 13 6 25l30 61q4 8 11 14l23 23l-23 23q-7 7 -11 15l-30 61q-6 11 -6 24v62q0 13 6 24l30 62q4 7 11 14l30 30q7 7 14 11l62 30q11 6 24 6h62q13 0 24 -6l61 -30q8 -4 15 -11l30 -30q7 -7 10 -14zM359 167v35l-21 43l-18 18l-42 21h-36l-42 -21
l-19 -18l-21 -43v-35l21 -43l19 -18l42 -21h36l42 21l18 18zM359 474v36l-21 42l-18 18l-42 22h-36l-42 -22l-19 -18l-21 -42v-36l21 -42l19 -18l42 -22h36l42 22l18 18z" />
    <glyph glyph-name="nine" unicode="9" 
d="M432 609l30 -62q6 -11 6 -24v-122v-2v-245q0 -13 -6 -25l-31 -61q-3 -8 -10 -14l-30 -31q-7 -6 -15 -10l-61 -31q-11 -5 -24 -5h-62q-13 0 -24 5l-62 31q-7 4 -14 10l-30 31q-7 6 -11 14l-30 61q-10 21 -3 42t27 31t41.5 3t31.5 -27l27 -54l18 -18l42 -21h36l42 21l18 18
l22 43v83l-45 -22q-11 -5 -24 -5h-62q-13 0 -24 5l-61 31q-8 4 -15 10l-30 31q-6 6 -10 14l-31 62q-6 11 -6 24v123q0 13 6 24l31 62q4 7 10 14l31 30q6 7 14 10l61 31q11 6 24 6h62q13 0 24 -6l62 -31q7 -3 14 -10l30 -30q7 -7 11 -14zM360 413v97l-22 42l-18 18l-42 21
h-36l-42 -21l-18 -18l-21 -42v-97l21 -43l18 -18l42 -21h36l42 21l18 18z" />
    <glyph glyph-name="colon" unicode=":" 
d="M259.5 146q22.5 0 38 -15.5t15.5 -38.5v-61q0 -23 -15.5 -38.5t-38 -15.5t-38.5 15.5t-16 38.5v61q0 23 16 38.5t38.5 15.5zM259.5 454q22.5 0 38 -16t15.5 -38v-62q0 -22 -15.5 -38t-38 -16t-38.5 16t-16 38v62q0 22 16 38t38.5 16z" />
    <glyph glyph-name="semicolon" unicode=";" 
d="M290.5 454q22.5 0 38.5 -16t16 -38v-62q0 -22 -16 -38t-38.5 -16t-38.5 16t-16 38v62q0 22 16 38t38.5 16zM290.5 146q22.5 0 38.5 -15.5t16 -38.5v-61q0 -13 -6 -25l-61 -123q-15 -30 -49 -30q-13 0 -24 6q-20 10 -27 31.5t3 41.5l55 112v48q0 23 16 38.5t38.5 15.5z
" />
    <glyph glyph-name="less" unicode="&#x3c;" 
d="M187 308l263 -237q17 -15 18 -37.5t-14 -39.5q-16 -18 -40 -18q-21 0 -37 14l-307 277q-18 16 -18 40.5t18 40.5l307 277q17 15 39.5 13.5t37.5 -18t14 -39t-18 -37.5z" />
    <glyph glyph-name="equal" unicode="=" 
d="M106 346q-22 0 -38 15.5t-16 38t16 38.5t38 16h308q22 0 38 -16t16 -38.5t-16 -38t-38 -15.5h-308zM414 269q22 0 38 -15.5t16 -38t-16 -38.5t-38 -16h-308q-22 0 -38 16t-16 38.5t16 38t38 15.5h308z" />
    <glyph glyph-name="greater" unicode="&#x3e;" 
d="M450 348q18 -16 18 -40.5t-18 -40.5l-307 -277q-16 -13 -37 -13q-24 0 -40 17q-15 17 -14 39.5t18 37.5l263 237l-263 236q-17 15 -18 37.5t14 39t37.5 18t39.5 -13.5z" />
    <glyph glyph-name="question" unicode="?" 
d="M462 547q6 -11 6 -24v-62q0 -13 -6 -24l-31 -62q-3 -7 -10 -14l-30 -30q-7 -7 -15 -11l-61 -30l-1 -1v-43q0 -22 -16 -38t-38.5 -16t-38 16t-15.5 38v92q0 23 15.5 38.5t38.5 15.5h18l42 22l18 18l21 42v36l-21 42l-18 18l-42 22h-36l-42 -22l-18 -18l-27 -53
q-10 -21 -31.5 -28t-41.5 3t-27 31.5t3 41.5l30 61q4 8 11 15l30 30q7 7 14 10l62 31q11 6 24 6h62q13 0 24 -6l61 -31q8 -3 15 -10l30 -30q7 -7 11 -15zM260 146q22 0 38 -15.5t16 -38.5v-61q0 -23 -16 -38.5t-38 -15.5t-38 15.5t-16 38.5v61q0 23 16 38.5t38 15.5z" />
    <glyph glyph-name="at" unicode="@" 
d="M291 516h61q1 0 3 -0.5l2 -0.5l-19 37l-18 18l-42 22h-36l-42 -22l-18 -18l-22 -42v-343l22 -43l18 -18l42 -21h172q22 0 38 -16t16 -38.5t-16 -38t-38 -15.5h-185q-13 0 -24 5l-62 31q-7 4 -14 10l-30 31q-7 6 -11 14l-30 62q-6 11 -6 24v369q0 13 6 24l31 62q3 7 10 14
l30 30q7 7 14 11l62 30q11 6 24 6h62q13 0 24 -6l62 -30q7 -4 14 -11l30 -30q7 -7 11 -14l30 -62q6 -11 6 -24v-338q0 -23 -16 -39t-38 -16q-17 0 -31 10q-14 -10 -31 -10h-61q-23 0 -39 16l-61 62q-16 16 -16 38v154q0 22 16 38l61 62q16 16 39 16zM360 377l-30 30h-17
l-29 -30v-109l29 -29h17l30 29v109z" />
    <glyph glyph-name="A" unicode="A" 
d="M436 195l31 -154q4 -22 -8.5 -40.5t-34.5 -22.5q-5 -2 -10 -2q-19 0 -34.5 12.5t-18.5 31.5l-22 110h-158l-22 -110q-4 -22 -22.5 -34.5t-40.5 -8t-34.5 23t-8.5 40.5l31 154v1l92 460q4 19 19 31.5t34 12.5h62q19 0 34 -12.5t19 -31.5l92 -460v-1zM203 239h114l-57 284z
" />
    <glyph glyph-name="A" unicode="&#xc5;" 
d="M436 195l31 -154q4 -22 -8.5 -40.5t-34.5 -22.5q-5 -2 -10 -2q-19 0 -34.5 12.5t-18.5 31.5l-22 110h-158l-22 -110q-4 -22 -22.5 -34.5t-40.5 -8t-34.5 23t-8.5 40.5l31 154v1l92 460q4 19 19 31.5t34 12.5h62q19 0 34 -12.5t19 -31.5l92 -460v-1zM203 239h114l-57 284z
" />
    <glyph glyph-name="A" unicode="&#xc3;" 
d="M436 195l31 -154q4 -22 -8.5 -40.5t-34.5 -22.5q-5 -2 -10 -2q-19 0 -34.5 12.5t-18.5 31.5l-22 110h-158l-22 -110q-4 -22 -22.5 -34.5t-40.5 -8t-34.5 23t-8.5 40.5l31 154v1l92 460q4 19 19 31.5t34 12.5h62q19 0 34 -12.5t19 -31.5l92 -460v-1zM203 239h114l-57 284z
" />
    <glyph glyph-name="A" unicode="&#xc1;" 
d="M436 195l31 -154q4 -22 -8.5 -40.5t-34.5 -22.5q-5 -2 -10 -2q-19 0 -34.5 12.5t-18.5 31.5l-22 110h-158l-22 -110q-4 -22 -22.5 -34.5t-40.5 -8t-34.5 23t-8.5 40.5l31 154v1l92 460q4 19 19 31.5t34 12.5h62q19 0 34 -12.5t19 -31.5l92 -460v-1zM203 239h114l-57 284z
" />
    <glyph glyph-name="B" unicode="B" 
d="M431 609l31 -62q6 -11 6 -24v-62q0 -13 -6 -24l-30 -62q-4 -7 -11 -14l-23 -23l23 -23q7 -6 11 -14l30 -62q6 -11 6 -24v-61q0 -13 -6 -25l-30 -61q-4 -8 -11 -14l-30 -31q-7 -6 -14 -10l-62 -31q-11 -6 -24 -6h-185q-22 0 -38 16t-16 39v615q0 22 16 38t38 16h185
q13 0 24 -6l62 -30q7 -4 14 -11l30 -30q7 -7 10 -14zM359 167v35l-21 43l-18 18l-42 21h-118v-199h118l42 21l18 18zM359 474v36l-21 42l-18 18l-42 22h-118v-200h118l42 22l18 18z" />
    <glyph glyph-name="C" unicode="C" 
d="M88 68l-30 62q-6 11 -6 24v369q0 13 6 24l31 62q4 7 10 14l30 30q7 7 15 11l61 30q11 6 24 6h62q13 0 24 -6l62 -30q7 -4 14 -11l30 -30q6 -7 10 -14l31 -62q10 -20 3 -41.5t-27 -31.5t-41.5 -3t-31.5 28l-27 53l-18 18l-42 22h-36l-42 -22l-19 -18l-21 -42v-343l21 -43
l19 -18l42 -21h36l42 21l18 18l27 54q10 20 31.5 27t41.5 -3t27 -31t-3 -41l-31 -62q-4 -8 -10 -14l-30 -31q-7 -6 -15 -10l-61 -31q-11 -5 -24 -5h-62q-13 0 -24 5l-62 31q-7 4 -14 10l-30 31q-7 6 -11 14z" />
    <glyph glyph-name="D" unicode="D" 
d="M106 -24q-22 0 -38 16t-16 39v615q0 22 16 38t38 16h185q13 0 24 -6l62 -30q7 -4 14 -11l30 -30q7 -7 11 -14l30 -62q6 -11 6 -24v-369q0 -13 -6 -25l-30 -61q-4 -8 -11 -14l-30 -31q-7 -6 -14 -10l-62 -31q-11 -6 -24 -6h-185zM160 592v-507h118l42 21l18 18l22 43v343
l-22 42l-18 18l-42 22h-118z" />
    <glyph glyph-name="E" unicode="E" 
d="M106 -24q-22 0 -38 16t-16 39v615q0 22 16 38t38 16h308q22 0 38 -16t16 -38.5t-16 -38t-38 -15.5h-254v-200h223q22 0 38 -15.5t16 -38t-16 -38.5t-38 -16h-223v-199h254q22 0 38 -16t16 -38.5t-16 -38.5t-38 -16h-308z" />
    <glyph glyph-name="F" unicode="F" 
d="M106.5 -24q-22.5 0 -38.5 16t-16 39v615q0 22 16 38t38 16h308q22 0 38 -16t16 -38.5t-16 -38t-38 -15.5h-254v-199h223q22 0 38 -16t16 -38.5t-16 -38.5t-38 -16h-223v-253q0 -23 -15.5 -39t-38 -16z" />
    <glyph glyph-name="G" unicode="G" 
d="M88 68l-30 61q-6 12 -6 25v369q0 13 6 24l30 62q4 7 11 14l30 30q7 7 14 11l62 30q11 6 24 6h62q13 0 24 -6l61 -30q8 -4 15 -11l30 -30q7 -7 10 -14l31 -62q10 -20 3 -41.5t-27 -31.5t-41.5 -3t-31.5 28l-27 53l-18 18l-42 22h-36l-42 -22l-19 -18l-21 -42v-343l21 -43
l19 -18l42 -21h36l42 21l18 18l21 43v117h-68q-23 0 -39 16t-16 38.5t16 38t39 15.5h123q22 0 38 -15.5t16 -38.5v-184q0 -13 -6 -25l-31 -61q-3 -8 -10 -14l-30 -31q-7 -6 -15 -10l-61 -31q-11 -5 -24 -5h-62q-13 0 -24 5l-62 31q-7 4 -14 10l-30 31q-7 6 -11 14z" />
    <glyph glyph-name="H" unicode="H" 
d="M106.5 -24q-22.5 0 -38.5 16t-16 39v615q0 22 16 38t38.5 16t38 -16t15.5 -38v-253h200v253q0 22 15.5 38t38 16t38.5 -16t16 -38v-615q0 -23 -16 -38.5t-38.5 -15.5t-38 15.5t-15.5 38.5v253h-200v-253q0 -23 -15.5 -39t-38 -16z" />
    <glyph glyph-name="I" unicode="I" 
d="M414 592h-100v-507h100q22 0 38 -16t16 -38.5t-16 -38.5t-38 -16h-308q-22 0 -38 16t-16 38.5t16 38.5t38 16h100v507h-100q-22 0 -38 15.5t-16 38t16 38.5t38 16h308q22 0 38 -16t16 -38.5t-16 -38t-38 -15.5z" />
    <glyph glyph-name="I" unicode="&#xcd;" 
d="M414 592h-100v-507h100q22 0 38 -16t16 -38.5t-16 -38.5t-38 -16h-308q-22 0 -38 16t-16 38.5t16 38.5t38 16h100v507h-100q-22 0 -38 15.5t-16 38t16 38.5t38 16h308q22 0 38 -16t16 -38.5t-16 -38t-38 -15.5z" />
    <glyph glyph-name="J" unicode="J" 
d="M414 700q22 0 38 -16t16 -38v-492q0 -13 -6 -24l-31 -62q-3 -8 -10 -14l-30 -31q-7 -6 -15 -10l-61 -31q-12 -5 -24 -5h-62q-13 0 -24 5l-62 31q-7 4 -14 10l-30 31q-7 6 -11 14l-30 62q-6 11 -6 24v61q0 23 16 38.5t38.5 15.5t38 -15.5t15.5 -38.5v-48l22 -43l18 -18
l42 -21h36l42 21l18 18l22 43v425h-223q-22 0 -38 15.5t-16 38t16 38.5t38 16h277z" />
    <glyph glyph-name="K" unicode="K" 
d="M93 -22q-19 4 -30.5 19t-11.5 34v615q0 22 16 38t38.5 16t38 -16t15.5 -38v-386l205 410q10 20 31.5 27t41.5 -3t27 -31t-3 -42l-141 -283l141 -283q10 -20 3 -41.5t-27 -31.5q-11 -6 -24 -6q-34 0 -49 30l-105 211l-105 -211q-15 -30 -49 -30q-6 0 -12 2z" />
    <glyph glyph-name="L" unicode="L" 
d="M414 85q22 0 38 -16t16 -38.5t-16 -38.5t-38 -16h-308q-22 0 -38 16t-16 39v615q0 22 16 38t38.5 16t38 -16t15.5 -38v-561h254z" />
    <glyph glyph-name="M" unicode="M" 
d="M414 700q22 0 38 -16t16 -38v-615q0 -23 -16 -39t-38.5 -16t-38 16t-15.5 39v420l-47 -187q-5 -19 -19.5 -30.5t-33.5 -11.5t-33.5 11.5t-19.5 30.5l-47 187v-420q0 -23 -15.5 -39t-38 -16t-38.5 16t-16 39v615q0 22 16 38t38 16h62q18 0 33 -11.5t19 -29.5l40 -159
l40 159q4 18 19 29.5t33 11.5h62z" />
    <glyph glyph-name="N" unicode="N" 
d="M106.5 -24q-22.5 0 -38.5 16t-16 39v615q0 22 16 38t38 16h62q18 0 32.5 -10.5t19.5 -28.5l140 -466v451q0 22 15.5 38t38 16t38.5 -16t16 -38v-615q0 -23 -16 -38.5t-38 -15.5h-62q-18 0 -32.5 10.5t-19.5 27.5l-140 466v-450q0 -23 -15.5 -39t-38 -16z" />
    <glyph glyph-name="N" unicode="&#xd1;" 
d="M106.5 -24q-22.5 0 -38.5 16t-16 39v615q0 22 16 38t38 16h62q18 0 32.5 -10.5t19.5 -28.5l140 -466v451q0 22 15.5 38t38 16t38.5 -16t16 -38v-615q0 -23 -16 -38.5t-38 -15.5h-62q-18 0 -32.5 10.5t-19.5 27.5l-140 466v-450q0 -23 -15.5 -39t-38 -16z" />
    <glyph glyph-name="O" unicode="O" 
d="M88 68l-30 62q-6 11 -6 24v369q0 13 6 24l30 62q4 7 11 14l30 30q7 7 14 11l62 30q11 6 24 6h62q13 0 24 -6l61 -30q8 -4 15 -11l30 -30q6 -7 10 -14l31 -62q6 -11 6 -24v-369q0 -13 -6 -25l-31 -61q-3 -8 -10 -14l-30 -31q-7 -6 -15 -10l-61 -31q-11 -5 -24 -5h-62
q-13 0 -24 5l-62 31q-7 4 -14 10l-30 31q-7 6 -11 14zM160 510v-343l22 -43l18 -18l42 -21h36l42 21l18 18l21 43v343l-21 42l-18 18l-42 22h-36l-42 -22l-18 -18z" />
    <glyph glyph-name="O" unicode="&#xd5;" 
d="M88 68l-30 62q-6 11 -6 24v369q0 13 6 24l30 62q4 7 11 14l30 30q7 7 14 11l62 30q11 6 24 6h62q13 0 24 -6l61 -30q8 -4 15 -11l30 -30q6 -7 10 -14l31 -62q6 -11 6 -24v-369q0 -13 -6 -25l-31 -61q-3 -8 -10 -14l-30 -31q-7 -6 -15 -10l-61 -31q-11 -5 -24 -5h-62
q-13 0 -24 5l-62 31q-7 4 -14 10l-30 31q-7 6 -11 14zM160 510v-343l22 -43l18 -18l42 -21h36l42 21l18 18l21 43v343l-21 42l-18 18l-42 22h-36l-42 -22l-18 -18z" />
    <glyph glyph-name="O" unicode="&#xd3;" 
d="M88 68l-30 62q-6 11 -6 24v369q0 13 6 24l30 62q4 7 11 14l30 30q7 7 14 11l62 30q11 6 24 6h62q13 0 24 -6l61 -30q8 -4 15 -11l30 -30q6 -7 10 -14l31 -62q6 -11 6 -24v-369q0 -13 -6 -25l-31 -61q-3 -8 -10 -14l-30 -31q-7 -6 -15 -10l-61 -31q-11 -5 -24 -5h-62
q-13 0 -24 5l-62 31q-7 4 -14 10l-30 31q-7 6 -11 14zM160 510v-343l22 -43l18 -18l42 -21h36l42 21l18 18l21 43v343l-21 42l-18 18l-42 22h-36l-42 -22l-18 -18z" />
    <glyph glyph-name="P" unicode="P" 
d="M431 609l31 -62q6 -11 6 -24v-62q0 -13 -6 -24l-30 -62q-4 -7 -11 -14l-30 -30q-7 -7 -14 -11l-62 -30q-11 -6 -24 -6h-131v-253q0 -23 -15.5 -39t-38 -16t-38.5 16t-16 39v615q0 22 16 38t38 16h185q13 0 24 -6l62 -30q7 -4 14 -11l30 -30q7 -7 10 -14zM359 474v36
l-21 42l-18 18l-42 22h-118v-200h118l42 22l18 18z" />
    <glyph glyph-name="Q" unicode="Q" 
d="M432 609l30 -62q6 -11 6 -24v-369q0 -13 -6 -24l-21 -44l17 -24q13 -18 9.5 -40t-22.5 -35q-14 -10 -31 -10q-28 0 -44 22l-6 8l-49 -25q-11 -5 -24 -5h-62q-13 0 -24 5l-62 31q-7 4 -14 10l-30 31q-7 6 -11 14l-30 61q-6 12 -6 25v369q0 13 6 24l30 62q4 7 11 14l30 30
q7 7 14 11l62 30q11 6 24 6h62q13 0 24 -6l62 -30q7 -4 14 -11l30 -30q7 -7 11 -14zM304 278l55 -78v310l-21 42l-18 18l-42 22h-36l-42 -22l-18 -18l-22 -42v-343l22 -43l18 -18l42 -21h36l22 11l-84 118q-13 19 -9.5 41t22 35t40.5 9.5t35 -21.5z" />
    <glyph glyph-name="R" unicode="R" 
d="M360 312l104 -261q8 -21 -0.5 -41.5t-29.5 -29.5q-10 -3 -20 -3q-17 0 -30.5 9t-20.5 25l-109 273h-94v-253q0 -23 -15.5 -38.5t-38 -15.5t-38.5 15.5t-16 38.5v615q0 22 16 38t38 16h185q13 0 24 -6l61 -30q8 -4 15 -11l30 -30q7 -7 11 -14l30 -62q6 -11 6 -24v-62
q0 -13 -6 -24l-30 -61q-4 -8 -11 -15l-30 -30q-7 -7 -15 -10zM160 592v-199h118l42 21l18 18l21 42v36l-21 42l-18 18l-42 22h-118z" />
    <glyph glyph-name="S" unicode="S" 
d="M88 375l-31 62q-6 11 -6 24v62q0 13 6 24l30 62q4 7 11 14l30 30q7 7 14 10l62 31q11 6 24 6h62q13 0 24 -6l62 -31q7 -3 14 -10l30 -30q7 -7 11 -15l30 -61q10 -20 3 -41.5t-27 -31.5t-41.5 -3t-31.5 27l-27 54l-18 18l-42 21h-36l-42 -21l-18 -18l-21 -42v-36l21 -42
l18 -18l42 -21h49q13 0 24 -6l62 -31q7 -4 14 -10l30 -31q7 -6 11 -14l30 -61q6 -12 6 -25v-61q0 -13 -6 -24l-30 -62q-4 -8 -11 -14l-30 -31q-7 -6 -14 -10l-62 -31q-11 -5 -24 -5h-62q-13 0 -24 5l-61 31q-8 4 -15 10l-30 31q-7 6 -10 14l-31 62q-10 20 -3 41t27 31
t41.5 3t31.5 -27l27 -54l18 -18l42 -21h36l42 21l18 18l22 43v35l-22 43l-18 18l-42 21h-49q-13 0 -24 6l-61 31q-8 3 -15 10l-30 30q-7 7 -10 14z" />
    <glyph glyph-name="T" unicode="T" 
d="M106 592q-22 0 -38 15.5t-16 38t16 38.5t38 16h308q22 0 38 -16t16 -38.5t-16 -38t-38 -15.5h-100v-561q0 -23 -16 -39t-38 -16t-38 16t-16 39v561h-100z" />
    <glyph glyph-name="U" unicode="U" 
d="M413.5 700q22.5 0 38.5 -16t16 -38v-492q0 -13 -6 -25l-30 -61q-4 -8 -11 -14l-30 -31q-7 -6 -14 -10l-62 -31q-11 -5 -24 -5h-62q-13 0 -24 5l-62 31q-7 4 -14 10l-30 31q-7 6 -11 14l-30 62q-6 11 -6 24v492q0 22 16 38t38.5 16t38 -16t15.5 -38v-479l22 -43l18 -18
l42 -21h36l42 21l18 18l22 43v479q0 22 15.5 38t38 16z" />
    <glyph glyph-name="U" unicode="&#xda;" 
d="M413.5 700q22.5 0 38.5 -16t16 -38v-492q0 -13 -6 -25l-30 -61q-4 -8 -11 -14l-30 -31q-7 -6 -14 -10l-62 -31q-11 -5 -24 -5h-62q-13 0 -24 5l-62 31q-7 4 -14 10l-30 31q-7 6 -11 14l-30 62q-6 11 -6 24v492q0 22 16 38t38.5 16t38 -16t15.5 -38v-479l22 -43l18 -18
l42 -21h36l42 21l18 18l22 43v479q0 22 15.5 38t38 16z" />
    <glyph glyph-name="V" unicode="V" 
d="M424 699q22 -4 34.5 -23t8.5 -41l-123 -615q-4 -19 -19 -31t-34 -12h-62q-19 0 -34 12t-19 31l-123 615q-4 22 8.5 41t34.5 23t40.5 -8.5t22.5 -34.5l101 -502l101 502q4 22 22.5 34.5t40.5 8.5z" />
    <glyph glyph-name="W" unicode="W" 
d="M413.5 700q22.5 0 38.5 -16t16 -38v-615q0 -23 -16 -39t-38 -16h-62q-18 0 -32.5 11.5t-19.5 28.5l-40 147l-40 -147q-5 -17 -19.5 -28.5t-32.5 -11.5h-62q-22 0 -38 16t-16 39v615q0 22 16 38t38.5 16t38 -16t15.5 -38v-436l48 173q4 18 19 29t33 11t32.5 -11t19.5 -29
l48 -173v436q0 22 15.5 38t38 16z" />
    <glyph glyph-name="X" unicode="X" 
d="M81 -18q-20 10 -27 31.5t3 41.5l141 283l-141 283q-10 21 -3 42t27 31t41.5 3t31.5 -27l105 -210l105 210q10 20 31.5 27t41.5 -3t27 -31t-3 -42l-141 -283l141 -283q10 -20 3 -41.5t-27 -31.5q-11 -6 -24 -6q-34 0 -49 30l-105 211l-105 -211q-15 -30 -49 -30
q-13 0 -24 6z" />
    <glyph glyph-name="Y" unicode="Y" 
d="M88 376l-30 61q-6 11 -6 24v185q0 22 16 38t38.5 16t38 -16t15.5 -38v-172l22 -42l18 -18l42 -22h36l42 22l18 18l21 42v172q0 22 16 38t38.5 16t38.5 -16t16 -38v-185q0 -13 -6 -24l-30 -62q-4 -7 -11 -14l-30 -30q-7 -7 -14 -11l-62 -30q-1 0 -1 -1v-258
q0 -23 -16 -38.5t-38 -15.5t-38 15.5t-16 38.5v258q0 1 -1 1l-62 31q-7 3 -14 10l-30 30q-7 7 -11 15z" />
    <glyph glyph-name="Y" unicode="&#xdd;" 
d="M88 376l-30 61q-6 11 -6 24v185q0 22 16 38t38.5 16t38 -16t15.5 -38v-172l22 -42l18 -18l42 -22h36l42 22l18 18l21 42v172q0 22 16 38t38.5 16t38.5 -16t16 -38v-185q0 -13 -6 -24l-30 -62q-4 -7 -11 -14l-30 -30q-7 -7 -14 -11l-62 -30q-1 0 -1 -1v-258
q0 -23 -16 -38.5t-38 -15.5t-38 15.5t-16 38.5v258q0 1 -1 1l-62 31q-7 3 -14 10l-30 30q-7 7 -11 15z" />
    <glyph glyph-name="Z" unicode="Z" 
d="M414 700q22 0 38 -16t16 -38v-62q0 -15 -8 -28l-294 -471h248q22 0 38 -16t16 -38.5t-16 -38.5t-38 -16h-308q-22 0 -38 16t-16 39v61q0 16 8 29l294 471h-248q-22 0 -38 15.5t-16 38t16 38.5t38 16h308z" />
    <glyph glyph-name="bracketleft" unicode="[" 
d="M352 -7q22 0 38 -16t16 -38.5t-16 -38.5t-38 -16h-185q-22 0 -38 16t-16 38v800q0 22 16 38t38 16h185q22 0 38 -16t16 -38t-16 -38t-38 -16h-131v-691h131z" />
    <glyph glyph-name="backslash" unicode="\" 
d="M463 -42q8 -21 -1 -41.5t-30 -28.5q-9 -4 -19 -4q-17 0 -31 9.5t-20 25.5l-307 800q-8 21 1 41.5t30 28.5t41.5 -1.5t28.5 -29.5z" />
    <glyph glyph-name="bracketright" unicode="]" 
d="M352 792q22 0 38 -16t16 -38v-800q0 -22 -16 -38t-38 -16h-185q-22 0 -38 16t-16 38.5t16 38.5t38 16h131v691h-131q-22 0 -38 16t-16 38t16 38t38 16h185z" />
    <glyph glyph-name="asciicircum" unicode="^" 
d="M455 496q15 -17 13 -39.5t-20 -36.5q-15 -13 -34 -13q-26 0 -42 20l-112 134l-112 -134q-14 -18 -36.5 -20t-40 12.5t-19.5 37t13 39.5l153 184q16 19 42 19t42 -19z" />
    <glyph glyph-name="underscore" unicode="_" 
d="M414 -69q22 0 38 -16t16 -38t-16 -38t-38 -16h-308q-22 0 -38 16t-16 38t16 38t38 16h308z" />
    <glyph glyph-name="grave" unicode="`" 
d="M339 486q10 -21 3 -42t-27 -31q-11 -6 -24 -6q-34 0 -49 30l-61 123q-6 11 -6 24v62q0 22 16 38t38.5 16t38 -16t15.5 -38v-49z" />
    <glyph glyph-name="a" unicode="a" 
d="M462 393q6 -11 6 -24v-338q0 -23 -16 -39t-38 -16q-34 0 -49 31l-50 -25q-11 -6 -24 -6h-62q-13 0 -24 6l-62 31q-7 4 -14 10l-30 31q-7 6 -11 14l-30 61q-6 12 -6 25v30q0 13 6 25l30 61q4 8 11 14l30 31q7 6 14 10l62 31q11 6 24 6h62q13 0 24 -6l44 -22v22l-16 34
l-34 17h-98l-50 -25q-20 -10 -41.5 -3t-31.5 27t-2.5 41.5t27.5 31.5l61 31q12 5 24 5h123q13 0 25 -5l61 -31q16 -8 25 -24zM359 167l1 5l-22 42l-18 18l-42 21h-36l-42 -21l-18 -18l-22 -42v-5l22 -43l18 -18l42 -21h36l42 21l18 18z" />
    <glyph glyph-name="a" unicode="&#xe5;" 
d="M462 393q6 -11 6 -24v-338q0 -23 -16 -39t-38 -16q-34 0 -49 31l-50 -25q-11 -6 -24 -6h-62q-13 0 -24 6l-62 31q-7 4 -14 10l-30 31q-7 6 -11 14l-30 61q-6 12 -6 25v30q0 13 6 25l30 61q4 8 11 14l30 31q7 6 14 10l62 31q11 6 24 6h62q13 0 24 -6l44 -22v22l-16 34
l-34 17h-98l-50 -25q-20 -10 -41.5 -3t-31.5 27t-2.5 41.5t27.5 31.5l61 31q12 5 24 5h123q13 0 25 -5l61 -31q16 -8 25 -24zM359 167l1 5l-22 42l-18 18l-42 21h-36l-42 -21l-18 -18l-22 -42v-5l22 -43l18 -18l42 -21h36l42 21l18 18z" />
    <glyph glyph-name="a" unicode="&#xe3;" 
d="M462 393q6 -11 6 -24v-338q0 -23 -16 -39t-38 -16q-34 0 -49 31l-50 -25q-11 -6 -24 -6h-62q-13 0 -24 6l-62 31q-7 4 -14 10l-30 31q-7 6 -11 14l-30 61q-6 12 -6 25v30q0 13 6 25l30 61q4 8 11 14l30 31q7 6 14 10l62 31q11 6 24 6h62q13 0 24 -6l44 -22v22l-16 34
l-34 17h-98l-50 -25q-20 -10 -41.5 -3t-31.5 27t-2.5 41.5t27.5 31.5l61 31q12 5 24 5h123q13 0 25 -5l61 -31q16 -8 25 -24zM359 167l1 5l-22 42l-18 18l-42 21h-36l-42 -21l-18 -18l-22 -42v-5l22 -43l18 -18l42 -21h36l42 21l18 18z" />
    <glyph glyph-name="b" unicode="b" 
d="M462 363q6 -12 6 -25v-184q0 -13 -6 -25l-31 -61q-3 -8 -10 -14l-30 -31q-7 -6 -15 -10l-61 -31q-11 -5 -24 -5h-62q-13 0 -24 5l-50 25q-15 -31 -49 -31q-22 0 -38 16t-16 39v615q0 22 16 38t38.5 16t38 -16t15.5 -38v-159l45 23q11 5 24 5h62q13 0 24 -5l62 -31
q7 -4 14 -10l30 -31q7 -6 11 -14zM360 167v158l-22 43l-18 18l-42 21h-36l-42 -21l-18 -18l-22 -43v-158l22 -43l18 -18l42 -21h36l42 21l18 18z" />
    <glyph glyph-name="c" unicode="c" 
d="M375 131q16 15 38.5 15t38.5 -15.5t16 -38t-16 -38.5l-31 -31q-6 -6 -14 -10l-61 -31q-12 -6 -25 -6h-92q-13 0 -24 6l-62 31q-7 4 -14 10l-30 31q-7 6 -11 14l-30 62q-6 11 -6 24v184q0 13 6 25l30 61q4 8 11 14l30 31q7 6 14 10l62 31q11 6 24 6h92q13 0 25 -6l61 -31
q8 -4 14 -10l31 -31q16 -16 16 -38.5t-16 -38t-38.5 -15.5t-38.5 15l-24 25l-42 21h-67l-42 -21l-18 -18l-22 -43v-158l22 -43l18 -18l42 -21h67l42 21z" />
    <glyph glyph-name="d" unicode="d" 
d="M413.5 700q22.5 0 38.5 -16t16 -38v-615q0 -23 -16 -38.5t-38 -15.5q-34 0 -49 30l-50 -25q-11 -5 -24 -5h-62q-13 0 -24 5l-62 31q-7 4 -14 10l-30 31q-7 6 -11 14l-30 62q-6 11 -6 24v184q0 13 6 25l30 61q4 8 11 14l30 31q6 6 14 10l62 31q11 5 24 5h62q13 0 24 -5
l45 -22v158q0 22 15.5 38t38 16zM359 167v158l-21 43l-18 18l-42 21h-36l-42 -21l-18 -18l-22 -43v-158l22 -43l18 -18l42 -21h36l42 21l18 18z" />
    <glyph glyph-name="e" unicode="e" 
d="M414 192h-254v-25l22 -43l18 -18l42 -21h67l42 21l24 25q16 15 38.5 15t38.5 -15.5t16 -38t-16 -38.5l-31 -31q-6 -6 -14 -10l-61 -31q-12 -5 -25 -5h-92q-13 0 -24 5l-62 31q-7 4 -14 10l-30 31q-7 6 -11 14l-30 61q-6 12 -6 25v184q0 13 6 25l30 61q4 8 11 14l30 31
q6 6 14 10l62 31q11 6 24 6h62q13 0 24 -6l61 -31q8 -4 15 -10l30 -31q7 -6 11 -14l30 -61q6 -12 6 -25v-92q0 -22 -16 -38t-38 -16zM160 325v-25h200v25l-22 43l-18 18l-42 21h-36l-42 -21l-18 -18z" />
    <glyph glyph-name="f" unicode="f" 
d="M438 664q20 -11 27 -32t-3 -41t-31 -27.5t-41 3.5l-51 25h-35l-34 -17l-17 -34v-25h68q23 0 39 -16t16 -38.5t-16 -38.5t-39 -16h-68v-376q0 -23 -16 -39t-38.5 -16t-38.5 16t-16 39v376h-38q-22 0 -38 16t-16 38.5t16 38t38 15.5h38v38q0 13 6 25l31 61q8 16 24 25
l61 30q12 6 25 6h61q13 0 24 -6z" />
    <glyph glyph-name="g" unicode="g" 
d="M414 516q22 0 38 -16t16 -39v-492q0 -13 -6 -24l-31 -61q-4 -8 -10 -15l-30 -30q-7 -7 -15 -10l-61 -31q-11 -6 -24 -6h-93q-12 0 -24 6l-61 31q-8 3 -14 10l-31 30q-16 16 -16 38.5t16 38.5t38.5 16t38.5 -16l24 -24l42 -21h67l42 21l18 18l21 42v23l-44 -23
q-11 -5 -24 -5h-62q-13 0 -24 5l-62 31q-7 4 -14 10l-30 31q-7 6 -11 14l-30 62q-6 11 -6 24v184q0 13 6 25l30 61q4 8 11 14l30 31q7 6 15 10l61 31q11 6 24 6h62q13 0 24 -6l50 -25q15 31 49 31zM360 167v158l-22 43l-18 18l-42 21h-36l-42 -21l-18 -18l-22 -43v-158
l22 -43l18 -18l42 -21h36l42 21l18 18z" />
    <glyph glyph-name="h" unicode="h" 
d="M462 363q6 -12 6 -25v-307q0 -23 -16 -38.5t-38.5 -15.5t-38.5 15.5t-16 38.5v294l-21 43l-18 18l-42 21h-36l-42 -21l-18 -18l-22 -43v-289q0 -22 -15.5 -38t-38 -16t-38.5 16t-16 38v615q0 23 16 39t38.5 16t38 -16t15.5 -39v-164l45 23q11 5 24 5h62q13 0 24 -5
l62 -31q7 -4 14 -10l30 -31q7 -6 11 -14z" />
    <glyph glyph-name="i" unicode="i" 
d="M414 85q22 0 38 -16t16 -38.5t-16 -38t-38 -15.5h-308q-22 0 -38 15.5t-16 38t16 38.5t38 16h100v322h-100q-22 0 -38 16t-16 38.5t16 38.5t38 16h154q22 0 38 -16t16 -39v-376h100zM260 561q-22 0 -38 16t-16 38v62q0 22 16 38t38 16t38 -16t16 -38v-62q0 -22 -16 -38
t-38 -16z" />
    <glyph glyph-name="j" unicode="j" 
d="M413.5 731q22.5 0 38.5 -16t16 -38v-62q0 -22 -16 -38t-38.5 -16t-38 16t-15.5 38v62q0 22 15.5 38t38 16zM414 516q22 0 38 -16t16 -39v-492q0 -13 -6 -24l-31 -62q-3 -7 -10 -14l-30 -30q-7 -7 -15 -10l-61 -31q-11 -6 -24 -6h-62q-13 0 -24 6l-62 31q-7 3 -14 10
l-30 30q-7 7 -11 15l-30 61q-10 20 -3 41.5t27 31.5t41.5 3t31.5 -27l27 -54l18 -18l42 -21h36l42 21l18 18l22 42v425h-131q-22 0 -38 16t-16 38.5t16 38.5t38 16h185z" />
    <glyph glyph-name="k" unicode="k" 
d="M327 246l131 -184q13 -18 9.5 -40t-22.5 -35q-14 -11 -31 -11q-28 0 -44 23l-110 154l-110 -154q-16 -23 -44 -23q-8 0 -16 3q-17 5 -27.5 19.5t-10.5 32.5v615q0 22 16 38t38.5 16t38 -16t15.5 -38v-446l210 293q13 18 35 21.5t40.5 -9.5t22 -35t-9.5 -40z" />
    <glyph glyph-name="l" unicode="l" 
d="M414 85q22 0 38 -16t16 -38.5t-16 -38t-38 -15.5h-308q-22 0 -38 15.5t-16 38t16 38.5t38 16h100v507h-100q-22 0 -38 15.5t-16 38t16 38.5t38 16h154q22 0 38 -16t16 -38v-561h100z" />
    <glyph glyph-name="m" unicode="m" 
d="M462 393q6 -11 6 -24v-338q0 -23 -16 -39t-38.5 -16t-38.5 16t-16 39v325l-22 44l-2 -2l-21 -42v-325q0 -23 -16 -39t-38 -16t-38 16t-16 39v325l-23 44l-1 -2l-22 -42v-325q0 -23 -15.5 -38.5t-38 -15.5t-38.5 15.5t-16 38.5v430q0 23 16 38.5t38 15.5q17 0 31 -9
q14 9 31 9h30q23 0 39 -15l23 -24l23 24q16 15 38 15h31q23 0 39 -15l30 -31q7 -6 10 -14z" />
    <glyph glyph-name="n" unicode="n" 
d="M462 363q6 -12 6 -25v-307q0 -23 -16 -38.5t-38.5 -15.5t-38.5 15.5t-16 38.5v294l-21 43l-18 18l-42 21h-36l-42 -21l-18 -18l-22 -43v-294q0 -23 -15.5 -39t-38 -16t-38.5 16t-16 39v430q0 23 16 38.5t38 15.5q34 0 49 -30l50 25q11 5 24 5h62q13 0 24 -5l62 -31
q7 -4 14 -10l30 -31q7 -6 11 -14z" />
    <glyph glyph-name="n" unicode="&#xf1;" 
d="M462 363q6 -12 6 -25v-307q0 -23 -16 -38.5t-38.5 -15.5t-38.5 15.5t-16 38.5v294l-21 43l-18 18l-42 21h-36l-42 -21l-18 -18l-22 -43v-294q0 -23 -15.5 -39t-38 -16t-38.5 16t-16 39v430q0 23 16 38.5t38 15.5q34 0 49 -30l50 25q11 5 24 5h62q13 0 24 -5l62 -31
q7 -4 14 -10l30 -31q7 -6 11 -14z" />
    <glyph glyph-name="o" unicode="o" 
d="M462 363q6 -12 6 -25v-184q0 -13 -6 -25l-31 -61q-3 -8 -10 -14l-30 -31q-7 -6 -15 -10l-61 -31q-11 -5 -24 -5h-62q-13 0 -24 5l-62 31q-7 4 -14 10l-30 31q-7 6 -11 14l-30 61q-6 12 -6 25v184q0 13 6 25l30 61q4 8 11 14l30 31q7 6 14 10l62 31q11 5 24 5h62
q13 0 24 -5l61 -31q8 -4 15 -10l30 -31q7 -6 10 -14zM359 167v158l-21 43l-18 18l-42 21h-36l-42 -21l-18 -18l-22 -43v-158l22 -43l18 -18l42 -21h36l42 21l18 18z" />
    <glyph glyph-name="o" unicode="&#xf5;" 
d="M462 363q6 -12 6 -25v-184q0 -13 -6 -25l-31 -61q-3 -8 -10 -14l-30 -31q-7 -6 -15 -10l-61 -31q-11 -5 -24 -5h-62q-13 0 -24 5l-62 31q-7 4 -14 10l-30 31q-7 6 -11 14l-30 61q-6 12 -6 25v184q0 13 6 25l30 61q4 8 11 14l30 31q7 6 14 10l62 31q11 5 24 5h62
q13 0 24 -5l61 -31q8 -4 15 -10l30 -31q7 -6 10 -14zM359 167v158l-21 43l-18 18l-42 21h-36l-42 -21l-18 -18l-22 -43v-158l22 -43l18 -18l42 -21h36l42 21l18 18z" />
    <glyph glyph-name="o" unicode="&#xf3;" 
d="M462 363q6 -12 6 -25v-184q0 -13 -6 -25l-31 -61q-3 -8 -10 -14l-30 -31q-7 -6 -15 -10l-61 -31q-11 -5 -24 -5h-62q-13 0 -24 5l-62 31q-7 4 -14 10l-30 31q-7 6 -11 14l-30 61q-6 12 -6 25v184q0 13 6 25l30 61q4 8 11 14l30 31q7 6 14 10l62 31q11 5 24 5h62
q13 0 24 -5l61 -31q8 -4 15 -10l30 -31q7 -6 10 -14zM359 167v158l-21 43l-18 18l-42 21h-36l-42 -21l-18 -18l-22 -43v-158l22 -43l18 -18l42 -21h36l42 21l18 18z" />
    <glyph glyph-name="p" unicode="p" 
d="M462 363q6 -12 6 -25v-184q0 -13 -6 -25l-31 -61q-3 -8 -10 -14l-30 -31q-7 -6 -15 -10l-61 -31q-11 -6 -24 -6h-62q-13 0 -24 6l-45 22v-158q0 -22 -15.5 -38t-38 -16t-38.5 16t-16 38v615q0 23 16 38.5t38 15.5q34 0 49 -30l50 25q11 5 24 5h62q13 0 24 -5l62 -31
q7 -4 14 -10l30 -31q7 -6 11 -14zM360 167v158l-22 43l-18 18l-42 21h-36l-42 -21l-18 -18l-22 -43v-158l22 -43l18 -18l42 -21h36l42 21l18 18z" />
    <glyph glyph-name="q" unicode="q" 
d="M414 516q22 0 38 -16t16 -39v-615q0 -22 -16 -38t-38.5 -16t-38 16t-15.5 38v159l-45 -23q-11 -5 -24 -5h-62q-13 0 -24 5l-62 31q-7 4 -14 10l-30 31q-7 6 -11 14l-30 62q-6 11 -6 24v184q0 13 6 25l30 61q4 8 11 14l30 31q7 6 14 10l62 31q11 6 24 6h62q12 0 24 -6
l50 -25q15 31 49 31zM360 167v158l-22 43l-18 18l-42 21h-36l-42 -21l-18 -18l-22 -43v-158l22 -43l18 -18l42 -21h36l42 21l18 18z" />
    <glyph glyph-name="r" unicode="r" 
d="M452 438q16 -16 16 -38.5t-16 -38t-38.5 -15.5t-38.5 15l-24 25l-42 21h-67l-42 -21l-18 -18l-22 -43v-294q0 -23 -15.5 -38.5t-38 -15.5t-38.5 15.5t-16 38.5v430q0 23 16 38.5t38 15.5q34 0 49 -30l50 25q11 6 24 6h92q13 0 25 -6l61 -31q8 -4 14 -10z" />
    <glyph glyph-name="s" unicode="s" 
d="M431 240l30 -62q6 -11 6 -24v-31q0 -13 -6 -24l-30 -62q-9 -16 -25 -24l-61 -31q-12 -5 -24 -5h-124q-12 0 -24 5l-61 31q-8 4 -14 10l-31 31q-16 16 -16 38.5t16 38t38.5 15.5t38.5 -15l24 -25l42 -21h98l34 17l17 34v5l-17 34l-34 17h-111q-12 0 -24 6l-61 30
q-16 8 -25 24l-30 62q-6 11 -6 24v31q0 13 6 24l30 62q9 16 25 24l61 31q12 5 24 5h124q12 0 24 -5l61 -31q8 -4 14 -10l31 -31q16 -16 16 -38.5t-16 -38t-38.5 -15.5t-38.5 15l-24 25l-42 21h-98l-34 -17l-17 -34v-5l17 -34l34 -17h111q12 0 24 -6l61 -30q16 -8 25 -24z
" />
    <glyph glyph-name="t" unicode="t" 
d="M389 110q20 10 41 3t31 -27t3 -41.5t-27 -31.5l-61 -31q-12 -5 -25 -5h-61q-13 0 -25 5l-61 31q-16 8 -24 24l-31 62q-6 11 -6 24v284h-38q-22 0 -38 16t-16 38.5t16 38.5t38 16h38v130q0 22 16 38t38.5 16t38.5 -16t16 -38v-130h161q22 0 38 -16t16 -38.5t-16 -38.5
t-38 -16h-161v-271l17 -34l34 -17h35z" />
    <glyph glyph-name="u" unicode="u" 
d="M413.5 516q22.5 0 38.5 -16t16 -39v-430q0 -23 -16 -38.5t-38 -15.5q-34 0 -49 30l-50 -25q-11 -5 -24 -5h-62q-13 0 -24 5l-62 31q-7 4 -14 10l-30 31q-7 6 -11 14l-30 62q-6 11 -6 24v307q0 23 16 39t38.5 16t38 -16t15.5 -39v-294l22 -43l18 -18l42 -21h36l42 21
l18 18l22 43v294q0 23 15.5 39t38 16z" />
    <glyph glyph-name="v" unicode="v" 
d="M427.5 513.5q21.5 -6.5 32.5 -26t5 -41.5l-123 -430q-5 -18 -19.5 -29t-32.5 -11h-62q-18 0 -32.5 11t-19.5 29l-123 430q-6 22 5 41.5t32.5 26t41 -4.5t25.5 -33l102 -355l102 355q6 22 25.5 33t41 4.5z" />
    <glyph glyph-name="w" unicode="w" 
d="M412.5 516q22.5 0 38.5 -16t16 -39v-430q0 -23 -16 -38.5t-38 -15.5h-62q-18 0 -32.5 10.5t-19.5 27.5l-41 137l-39 -136q-5 -18 -19.5 -28.5t-32.5 -10.5h-62q-22 0 -38 15.5t-16 38.5v430q0 23 16 38.5t38.5 15.5t38 -15.5t15.5 -38.5v-260l46 157q5 18 19.5 28.5
t32.5 11.5q18 0 32.5 -11t19.5 -28l50 -165v267q0 23 15.5 39t38 16z" />
    <glyph glyph-name="x" unicode="x" 
d="M327 246l131 -184q13 -18 9.5 -40t-22.5 -35q-14 -11 -31 -11q-28 0 -44 23l-110 154l-110 -154q-16 -23 -44 -23q-17 0 -31 11q-19 13 -22.5 35t9.5 40l131 184l-131 184q-13 18 -9.5 40t22 35t40.5 9.5t35 -21.5l110 -154l110 154q13 18 35 21.5t40.5 -9.5t22 -35
t-9.5 -40z" />
    <glyph glyph-name="y" unicode="y" 
d="M413.5 516q22.5 0 38.5 -16t16 -39v-492q0 -13 -6 -24l-30 -61q-4 -8 -11 -15l-30 -30q-7 -7 -14 -10l-62 -31q-11 -6 -24 -6h-93q-12 0 -24 6l-61 31q-8 3 -14 10l-31 30q-16 16 -16 38.5t16 38.5t38.5 16t38.5 -16l24 -24l42 -21h67l42 21l18 18l22 42v22l-45 -22
q-11 -5 -24 -5h-62q-13 0 -24 5l-62 31q-7 4 -14 10l-30 31q-7 6 -11 14l-30 62q-6 11 -6 24v307q0 23 16 39t38.5 16t38 -16t15.5 -39v-294l22 -43l18 -18l42 -21h36l42 21l18 18l22 43v294q0 23 15.5 39t38 16z" />
    <glyph glyph-name="y" unicode="&#xfd;" 
d="M413.5 516q22.5 0 38.5 -16t16 -39v-492q0 -13 -6 -24l-30 -61q-4 -8 -11 -15l-30 -30q-7 -7 -14 -10l-62 -31q-11 -6 -24 -6h-93q-12 0 -24 6l-61 31q-8 3 -14 10l-31 30q-16 16 -16 38.5t16 38.5t38.5 16t38.5 -16l24 -24l42 -21h67l42 21l18 18l22 42v22l-45 -22
q-11 -5 -24 -5h-62q-13 0 -24 5l-62 31q-7 4 -14 10l-30 31q-7 6 -11 14l-30 62q-6 11 -6 24v307q0 23 16 39t38.5 16t38 -16t15.5 -39v-294l22 -43l18 -18l42 -21h36l42 21l18 18l22 43v294q0 23 15.5 39t38 16z" />
    <glyph glyph-name="z" unicode="z" 
d="M468 400q0 -23 -16 -39l-276 -276h238q22 0 38 -16t16 -38.5t-16 -38.5t-38 -16h-308q-22 0 -38 16t-16 39v61q0 23 16 39l276 276h-238q-22 0 -38 16t-16 38.5t16 38t38 15.5h308q22 0 38 -15.5t16 -38.5v-61z" />
    <glyph glyph-name="braceleft" unicode="{" 
d="M392 -13q20 -10 27 -31.5t-3 -41.5q-15 -30 -49 -30q-12 0 -24 6l-61 31q-8 4 -14 10l-31 31q-6 6 -10 14l-31 61q-6 12 -6 25v61q0 13 6 24l25 50v5l-21 43l-18 18l-54 27q-30 15 -30 48.5t30 48.5l54 27l18 18l21 42v5l-25 50q-6 12 -6 24v62q0 13 6 24l31 62
q4 8 10 14l31 31q6 6 14 10l61 31q20 10 41.5 2.5t31.5 -27.5t3 -41t-27 -31l-54 -27l-18 -19l-21 -42v-36l25 -50q5 -11 5 -24v-31q0 -13 -5 -24l-31 -62q-4 -7 -10 -14l-23 -23l23 -23q6 -6 10 -14l31 -61q5 -12 5 -25v-31q0 -12 -5 -24l-25 -50v-36l21 -42l18 -18z" />
    <glyph glyph-name="bar" unicode="|" 
d="M259.5 792q22.5 0 38 -16t15.5 -38v-800q0 -22 -15.5 -38t-38 -16t-38.5 16t-16 38v800q0 22 16 38t38.5 16z" />
    <glyph glyph-name="braceright" unicode="}" 
d="M392 387q30 -15 30 -48.5t-30 -48.5l-54 -27l-18 -18l-21 -42v-6l25 -50q5 -11 5 -24v-61q0 -13 -5 -25l-31 -61q-4 -8 -10 -14l-31 -31q-6 -6 -14 -10l-61 -31q-12 -6 -25 -6q-33 0 -48 30q-10 20 -3 41.5t27 31.5l54 27l18 18l21 42v36l-25 50q-6 12 -6 25v30
q0 13 6 25l31 61q4 8 10 14l23 23l-23 23q-6 7 -10 14l-31 62q-6 11 -6 24v31q0 13 6 24l25 50v36l-21 42l-18 19l-54 26q-20 11 -27 32t3 41t31 27.5t42 -2.5l61 -31q8 -4 14 -10l31 -31q6 -6 10 -14l31 -62q5 -11 5 -24v-62q0 -12 -5 -24l-25 -50v-5l21 -42l18 -18z" />
    <glyph glyph-name="asciitilde" unicode="~" 
d="M451 376.5q16 -15.5 16 -38t-16 -38.5l-61 -62q-16 -16 -39 -16h-31q-12 0 -24 6l-108 54l-44 -44q-16 -15 -38.5 -15t-38.5 15.5t-16 38t16 38.5l61 62q16 15 39 15h31q12 0 24 -5l108 -55l44 45q16 15 38.5 15t38.5 -15.5z" />
    <glyph glyph-name="nonbreakingspace" unicode="&#xa0;" 
 />
    <glyph glyph-name="exclamdown" unicode="&#xa1;" 
d="M259.5 485q22.5 0 38 -16t15.5 -38v-400q0 -23 -15.5 -39t-38 -16t-38.5 16t-16 39v400q0 22 16 38t38.5 16zM259.5 700q22.5 0 38 -16t15.5 -38v-62q0 -22 -15.5 -38t-38 -16t-38.5 16t-16 38v62q0 22 16 38t38.5 16z" />
    <glyph glyph-name="cent" unicode="&#xa2;" 
d="M375 131q16 15 38.5 15t38.5 -15.5t16 -38t-16 -38.5l-31 -31q-6 -6 -14 -10l-61 -31q-12 -5 -25 -5h-7v-69q0 -23 -16 -38.5t-38 -15.5t-38 15.5t-16 38.5v74h-1l-62 31q-7 4 -14 10l-30 31q-7 6 -11 14l-30 62q-6 11 -6 24v184q0 13 6 25l30 61q4 8 11 14l30 31
q7 6 14 10l62 31h1v74q0 23 16 39t38 16t38 -16t16 -39v-69h7q13 0 25 -5l61 -31q8 -4 14 -10l31 -31q16 -16 16 -38.5t-16 -38t-38.5 -15.5t-38.5 15l-24 25l-37 18v-316l37 18zM206 103v286l-6 -3l-18 -18l-22 -43v-158l22 -43l18 -18z" />
    <glyph glyph-name="sterling" unicode="&#xa3;" 
d="M462 86q10 -20 3 -41.5t-27 -31.5l-61 -31q-12 -5 -25 -5h-92q-13 0 -24 5l-50 25h-27l-14 -15q-16 -15 -38.5 -15t-38.5 15.5t-16 38t16 38.5l24 25l22 42v148h-8q-22 0 -38 16t-16 38q0 34 31 49l-25 50q-6 11 -6 24v62q0 13 6 24l30 62q4 7 11 14l30 30q7 7 14 11
l62 30q11 6 24 6h62q13 0 24 -6l61 -30q8 -4 15 -11l30 -30q7 -7 10 -14l31 -62q10 -20 3 -41.5t-27 -31.5t-41.5 -3t-31.5 27l-27 54l-18 18l-42 22h-36l-42 -22l-18 -18l-22 -42v-36l41 -82h120q23 0 39 -15.5t16 -38t-16 -38.5t-39 -16h-99v-161q0 -6 -1 -12l0.5 -0.5
t1.5 -0.5l50 -25h66l50 25q21 10 42 3t31 -27z" />
    <glyph glyph-name="yen" unicode="&#xa5;" 
d="M413 284h-100v-45h100q22 0 38 -16t16 -38.5t-16 -38.5t-38 -16h-100v-99q0 -23 -16 -39t-38 -16t-38 16t-16 39v99h-100q-22 0 -38 16t-16 38.5t16 38.5t38 16h100v45h-100q-22 0 -38 16t-16 38.5t16 38t38 15.5h43l-93 234q-8 20 0.5 41t29.5 29t41.5 -0.5t29.5 -29.5
l103 -259l103 259q9 21 29.5 29.5t41.5 0.5t29.5 -29t0.5 -41l-93 -234h43q22 0 38 -15.5t16 -38t-16 -38.5t-38 -16z" />
    <glyph glyph-name="section" unicode="&#xa7;" 
d="M462 393q6 -11 6 -24v-62q0 -12 -6 -24l-31 -61q-3 -8 -10 -14l-30 -31q-7 -6 -14 -10l-1 -1l25 -49q5 -12 5 -25v-92q0 -22 -15 -38l-62 -62q-16 -16 -38 -16h-92q-23 0 -39 16l-31 31q-15 16 -15 38v31q0 22 15.5 38t38 16t38.5 -16t16 -38v-7h46l30 29v57l-21 43
l-17 16l-143 58q-19 7 -29 26l-30 61q-6 12 -6 25v61q0 13 6 24l30 62q4 8 11 14l30 31q7 6 14 10h1l-25 50q-5 11 -5 24v93q0 22 15 38l62 61q16 16 38 16h92q23 0 39 -16l31 -30q15 -16 15 -39v-30q0 -23 -15.5 -39t-38 -16t-38.5 16t-16 39v7h-46l-30 -30v-57l21 -42
l17 -17l143 -57q19 -8 28 -26zM359 320l1 36l-16 32l-112 45l-32 -16l-18 -19l-22 -42v-36l16 -31l112 -45l32 16l18 18z" />
    <glyph glyph-name="dieresis" unicode="&#xa8;" 
d="M167.5 700q22.5 0 38 -16t15.5 -38v-62q0 -22 -15.5 -38t-38 -16t-38.5 16t-16 38v62q0 22 16 38t38.5 16zM351.5 700q22.5 0 38.5 -16t16 -38v-62q0 -22 -16 -38t-38.5 -16t-38 16t-15.5 38v62q0 22 15.5 38t38 16z" />
    <glyph glyph-name="copyright" unicode="&#xa9;" 
d="M462 547q6 -11 6 -24v-369q0 -13 -6 -25l-31 -61q-4 -8 -10 -14l-30 -31q-7 -6 -15 -10l-61 -31q-12 -5 -24 -5h-62q-13 0 -24 5l-62 31q-7 4 -14 10l-30 31q-7 6 -11 14l-30 62q-6 11 -6 24v369q0 13 6 24l30 62q4 7 11 14l30 30q7 7 14 11l62 30q11 6 24 6h62
q13 0 24 -6l61 -30q8 -4 15 -11l30 -30q7 -7 10 -14zM359 167v343l-21 42l-18 18l-42 22h-36l-42 -22l-18 -18l-22 -42v-343l22 -43l18 -18l42 -21h36l42 21l18 18zM291 407h-8v-138h8q22 0 38 -15.5t16 -38t-16 -38.5t-38 -16h-31q-22 0 -38 16l-31 31q-16 16 -16 38v185
q0 22 16 38l31 31q16 15 38 15h31q22 0 38 -15.5t16 -38t-16 -38.5t-38 -16z" />
    <glyph glyph-name="ordfeminine" unicode="&#xaa;" 
d="M298 500l154 -154q16 -16 16 -38.5t-16 -38.5t-38.5 -16t-38.5 16l-61 61v-176q0 -23 -16 -38.5t-38 -15.5t-38 15.5t-16 38.5v176l-61 -61q-16 -16 -38.5 -16t-38.5 16t-16 38.5t16 38.5l154 154q15 16 38 16t38 -16z" />
    <glyph glyph-name="guillemotleft" unicode="&#xab;" 
d="M176 308l96 -120q14 -18 11.5 -40.5t-20.5 -36.5q-15 -11 -34 -11q-26 0 -42 20l-123 154q-12 14 -12 33.5t12 33.5l123 154q14 18 36.5 20.5t40 -11.5t20 -36.5t-11.5 -40.5zM360 308l96 -120q14 -18 11.5 -40.5t-19.5 -36.5q-15 -11 -34 -11q-26 0 -43 20l-123 154
q-11 14 -11 33.5t11 33.5l123 154q14 18 36.5 20.5t40 -11.5t20 -36.5t-11.5 -40.5z" />
    <glyph glyph-name="logicalnot" unicode="&#xac;" 
d="M414 362q22 0 38 -16t16 -38v-124q0 -22 -16 -38t-38.5 -16t-38 16t-15.5 38v69h-254q-22 0 -38 16t-16 38.5t16 38.5t38 16h308z" />
    <glyph glyph-name="registered" unicode="&#xae;" 
d="M462 455q6 -12 6 -24v-93q0 -13 -6 -24l-31 -62q-2 -5 -6 -9l-123 -154q-16 -20 -42 -20t-42 20l-123 154q-4 4 -7 9l-30 62q-6 11 -6 24v93q0 12 6 24l30 61q4 8 11 14l30 31q16 16 39 16h30q23 0 39 -16l23 -23l23 23q16 16 38 16h31q23 0 39 -16l30 -31q7 -6 10 -14z
M359 351v67l-22 43l-2 -1l-27 -54q-15 -30 -48.5 -30t-48.5 30l-28 55l-1 -1l-22 -42v-67l23 -45l77 -96l77 96z" />
    <glyph glyph-name="degree" unicode="&#xb0;" 
d="M390 653q16 -16 16 -38v-123q0 -22 -16 -38l-31 -31q-16 -16 -38 -16h-123q-23 0 -38 16l-31 31q-16 16 -16 38v123q0 22 16 38l31 31q16 16 38 16h123q22 0 38 -16zM297 515v77h-76v-77h76z" />
    <glyph glyph-name="plusminus" unicode="&#xb1;" 
d="M414 177q22 0 38 -16t16 -38t-16 -38t-38 -16h-308q-22 0 -38 16t-16 38t16 38t38 16h308zM106 346q-22 0 -38 15.5t-16 38t16 38.5t38 16h100v100q0 22 16 38t38 16t38 -16t16 -38v-100h100q22 0 38 -16t16 -38.5t-16 -38t-38 -15.5h-100v-100q0 -22 -16 -38t-38 -16
t-38 16t-16 38v100h-100z" />
    <glyph glyph-name="acute" unicode="&#xb4;" 
d="M290.5 700q22.5 0 38.5 -16t16 -38v-62q0 -12 -6 -24l-61 -123q-15 -30 -49 -30q-13 0 -24 6q-20 10 -27 31t3 42l56 111v49q0 22 15.5 38t38 16z" />
    <glyph glyph-name="mu" unicode="&#xb5;" 
d="M413.5 515q22.5 0 38.5 -15.5t16 -38.5v-461q0 -22 -16 -38t-38.5 -16t-38 16t-15.5 38v4l-45 -22q-11 -6 -24 -6h-62q-13 0 -24 6l-45 22v-189q0 -22 -15.5 -38t-38 -16t-38.5 16t-16 38v646q0 23 16 38.5t38.5 15.5t38 -15.5t15.5 -38.5v-294l22 -43l18 -18l42 -21h36
l42 21l18 18l22 43v294q0 23 15.5 38.5t38 15.5z" />
    <glyph glyph-name="paragraph" unicode="&#xb6;" 
d="M414 700q22 0 38 -16t16 -38v-615q0 -23 -16 -39t-38.5 -16t-38.5 16t-16 39v561h-14v-561q0 -23 -16 -39t-38.5 -16t-38.5 16t-16 39v253h-7q-13 0 -24 6l-62 30q-7 4 -14 11l-30 30q-7 7 -11 15l-30 61q-6 11 -6 24v62q0 13 6 24l30 62q4 7 11 14l30 30q7 7 14 11
l62 30q11 6 24 6h185zM237 395v194l-37 -19l-18 -18l-22 -42v-36l22 -42l18 -18z" />
    <glyph glyph-name="periodcentered" unicode="&#xb7;" 
d="M390 407q16 -16 16 -38v-123q0 -22 -16 -38l-31 -31q-16 -16 -38 -16h-123q-22 0 -38 16l-31 31q-16 16 -16 38v123q0 22 16 38l31 31q16 16 38 16h123q22 0 38 -16zM297 270v76h-76v-76h76z" />
    <glyph glyph-name="ordmasculine" unicode="&#xba;" 
d="M375 346q16 16 38.5 16t38.5 -16t16 -38.5t-16 -38.5l-154 -154q-3 -3 -8 -6q-1 -1 -2.5 -1.5t-1.5 -1.5q-4 -2 -5 -2q-1 -1 -5.5 -2l-4.5 -1q-6 -2 -11 -2t-11 2l-4 1q-5 1 -6 2q-1 0 -5 2q-1 1 -2 1.5t-2 1.5q-5 3 -8 6l-154 154q-16 16 -16 38.5t16 38.5t38.5 16
t38.5 -16l61 -61v176q0 23 16 39t38 16t38 -16t16 -39v-176z" />
    <glyph glyph-name="guillemotright" unicode="&#xbb;" 
d="M455 341q12 -14 12 -33.5t-12 -33.5l-123 -154q-16 -20 -42 -20q-19 0 -34 11q-18 14 -20.5 36.5t11.5 40.5l96 120l-96 119q-14 18 -11.5 40.5t20 36.5t40 11.5t36.5 -20.5zM271 341q11 -14 11 -33.5t-11 -33.5l-123 -154q-17 -20 -43 -20q-19 0 -34 11
q-17 14 -19.5 36.5t11.5 40.5l96 120l-96 119q-14 18 -11.5 40.5t20 36.5t40 11.5t36.5 -20.5z" />
    <glyph glyph-name="questiondown" unicode="&#xbf;" 
d="M438 202q20 -10 27 -31t-3 -41l-30 -62q-5 -8 -11 -14l-30 -31q-7 -6 -14 -10l-62 -31q-11 -5 -24 -5h-62q-13 0 -24 5l-62 31q-7 4 -14 10l-30 31q-7 6 -11 14l-30 62q-6 11 -6 24v61q0 13 6 25l30 61q4 8 11 14l30 31q7 6 14 10l62 31h1v44q0 22 16 38t38 16t38 -16
t16 -38v-93q0 -22 -16 -38t-38 -16h-18l-42 -21l-18 -18l-22 -43v-35l22 -43l18 -18l42 -21h36l42 21l18 18l27 54q10 20 31.5 27t41.5 -3zM260 530q-22 0 -38 16t-16 38v62q0 22 16 38t38 16t38 -16t16 -38v-62q0 -22 -16 -38t-38 -16z" />
    <glyph glyph-name="Agrave" unicode="&#xc0;" 
d="M466 41q4 -22 -8.5 -40.5t-34.5 -22.5q-5 -2 -10 -2q-19 0 -34.5 12.5t-18.5 31.5l-22 110h-158l-22 -110q-4 -22 -22.5 -34.5t-40.5 -8t-34.5 23t-8.5 40.5l31 154l92 461q4 19 19 31.5t34 12.5h62q19 0 34 -12.5t19 -31.5l92 -461zM202 239h114l-57 284zM213 741
l-93 154q-11 19 -5.5 40.5t24.5 33.5t41 6.5t33 -25.5l93 -153q11 -20 5.5 -41.5t-24.5 -33.5q-13 -7 -28 -7q-31 0 -46 26z" />
    <glyph glyph-name="Acircumflex" unicode="&#xc2;" 
d="M466 41q4 -22 -8.5 -40.5t-34.5 -22.5q-5 -1 -10 -1q-19 -1 -34.5 11.5t-18.5 31.5l-22 110h-158l-22 -110q-4 -22 -22.5 -34.5t-40.5 -8t-34.5 23t-8.5 40.5l31 154l92 461q4 19 19 31.5t34 12.5h62q19 0 34 -12.5t19 -31.5l92 -461zM202 239h114l-57 284zM102 726
q-17 14 -19.5 36.5t11.5 40.5l123 153q16 21 42 21t42 -21l123 -153q14 -18 11.5 -40.5t-20 -36.5t-39.5 -11.5t-36 20.5l-81 101l-81 -101q-16 -20 -42 -20q-19 0 -34 11z" />
    <glyph glyph-name="Adieresis" unicode="&#xc4;" 
d="M467 41q4 -22 -8.5 -40.5t-34.5 -22.5q-5 -1 -10 -1q-19 0 -34.5 12t-18.5 31l-22 110h-158l-22 -110q-4 -22 -22.5 -34.5t-40.5 -8t-34.5 23t-8.5 40.5l31 154l92 461q4 19 19 31.5t34 12.5h62q19 0 34 -12.5t19 -31.5l92 -461zM203 239h114l-57 284zM167.5 715
q-22.5 0 -38.5 15.5t-16 38.5v61q0 23 16 38.5t38.5 15.5t38.5 -15.5t16 -38.5v-61q0 -23 -16 -38.5t-38.5 -15.5zM352.5 715q-22.5 0 -38.5 15.5t-16 38.5v61q0 23 16 38.5t38.5 15.5t38 -15.5t15.5 -38.5v-61q0 -23 -15.5 -38.5t-38 -15.5z" />
    <glyph glyph-name="Ccedilla" unicode="&#xc7;" 
d="M438 202q20 -10 27 -31t-3 -42l-31 -61q-3 -8 -10 -14l-30 -31q-7 -6 -15 -10l-61 -31h-1v-44q0 -16 -9 -30l-61 -92q-17 -24 -46 -24q-16 0 -30 9q-18 13 -22.5 35t7.5 40l53 79v27h-1l-62 31q-7 4 -14 10l-30 31q-7 6 -11 14l-30 61q-6 12 -6 25v369q0 12 6 24l30 62
q4 7 11 14l30 30q7 7 14 11l62 30q11 6 24 6h62q13 0 24 -6l61 -30q8 -4 15 -11l30 -30q7 -7 10 -14l31 -62q10 -20 3 -41.5t-27 -31.5t-41.5 -3t-31.5 27l-27 54l-18 18l-42 22h-36l-42 -22l-18 -18l-22 -42v-343l22 -43l18 -18l42 -21h36l42 21l18 18l27 54q10 20 31.5 27
t41.5 -3z" />
    <glyph glyph-name="Egrave" unicode="&#xc8;" 
d="M414 85q22 0 38 -16t16 -38.5t-16 -38t-38 -15.5h-308q-22 0 -38 15.5t-16 38.5v615q0 22 16 38t38 16h308q22 0 38 -16t16 -38.5t-16 -38t-38 -15.5h-254v-200h223q22 0 38 -15.5t16 -38t-16 -38.5t-38 -16h-223v-199h254zM213 741l-92 154q-11 19 -5.5 40.5t24.5 33.5
t41 6.5t33 -25.5l93 -153q11 -20 5.5 -41.5t-24.5 -33.5q-13 -7 -28 -7q-31 0 -47 26z" />
    <glyph glyph-name="Eacute" unicode="&#xc9;" 
d="M414 85q22 0 38 -16t16 -38.5t-16 -38t-38 -15.5h-308q-22 0 -38 15.5t-16 38.5v615q0 22 16 38t38 16h308q22 0 38 -16t16 -38.5t-16 -38t-38 -15.5h-254v-200h223q22 0 38 -15.5t16 -38t-16 -38.5t-38 -16h-223v-199h254zM232 722q-19 12 -24.5 33.5t5.5 41.5l93 153
q11 20 33 25.5t41 -6t24.5 -33.5t-5.5 -41l-93 -154q-15 -26 -46 -26q-15 0 -28 7z" />
    <glyph glyph-name="Ecircumflex" unicode="&#xca;" 
d="M414 85q22 0 38 -16t16 -38.5t-16 -38t-38 -15.5h-308q-22 0 -38 15.5t-16 38.5v615q0 22 16 38t38 16h308q22 0 38 -16t16 -38.5t-16 -38t-38 -15.5h-254v-200h223q22 0 38 -15.5t16 -38t-16 -38.5t-38 -16h-223v-199h254zM103 726q-17 14 -19.5 36.5t11.5 40.5l123 153
q16 21 42 21t42 -21l123 -153q14 -18 11.5 -40.5t-20 -36.5t-39.5 -11.5t-36 20.5l-81 101l-81 -101q-16 -20 -42 -20q-19 0 -34 11z" />
    <glyph glyph-name="Edieresis" unicode="&#xcb;" 
d="M414 85q22 0 38 -16t16 -38.5t-16 -38t-38 -15.5h-308q-22 0 -38 15.5t-16 38.5v615q0 22 16 38t38 16h308q22 0 38 -16t16 -38.5t-16 -38t-38 -15.5h-254v-200h223q22 0 38 -15.5t16 -38t-16 -38.5t-38 -16h-223v-199h254zM167.5 715q-22.5 0 -38.5 15.5t-16 38.5v61
q0 23 16 39t38.5 16t38.5 -16t16 -39v-61q0 -23 -16 -38.5t-38.5 -15.5zM352.5 715q-22.5 0 -38.5 15.5t-16 38.5v61q0 23 16 39t38.5 16t38 -16t15.5 -39v-61q0 -23 -15.5 -38.5t-38 -15.5z" />
    <glyph glyph-name="Igrave" unicode="&#xcc;" 
d="M414 85q22 0 38 -16t16 -38.5t-16 -38t-38 -15.5h-308q-22 0 -38 15.5t-16 38t16 38.5t38 16h100v507h-100q-22 0 -38 15.5t-16 38t16 38.5t38 16h308q22 0 38 -16t16 -38.5t-16 -38t-38 -15.5h-100v-507h100zM213 741l-92 154q-11 19 -5.5 40.5t24.5 33.5t41 6.5
t33 -25.5l93 -153q11 -20 5.5 -41.5t-24.5 -33.5q-13 -7 -28 -7q-31 0 -47 26z" />
    <glyph glyph-name="Icircumflex" unicode="&#xce;" 
d="M414 85q22 0 38 -16t16 -38.5t-16 -38t-38 -15.5h-308q-22 0 -38 15.5t-16 38t16 38.5t38 16h100v507h-100q-22 0 -38 15.5t-16 38t16 38.5t38 16h308q22 0 38 -16t16 -38.5t-16 -38t-38 -15.5h-100v-507h100zM103 726q-17 14 -19.5 36.5t11.5 40.5l123 153q16 21 42 21
t42 -21l123 -153q14 -18 11.5 -40.5t-20 -36.5t-39.5 -11.5t-36 20.5l-81 101l-81 -101q-16 -20 -42 -20q-19 0 -34 11z" />
    <glyph glyph-name="Idieresis" unicode="&#xcf;" 
d="M414 85q22 0 38 -16t16 -38.5t-16 -38t-38 -15.5h-308q-22 0 -38 15.5t-16 38t16 38.5t38 16h100v507h-100q-22 0 -38 15.5t-16 38t16 38.5t38 16h308q22 0 38 -16t16 -38.5t-16 -38t-38 -15.5h-100v-507h100zM167.5 715q-22.5 0 -38.5 15.5t-16 38.5v61q0 23 16 39
t38.5 16t38.5 -16t16 -39v-61q0 -23 -16 -38.5t-38.5 -15.5zM352.5 715q-22.5 0 -38.5 15.5t-16 38.5v61q0 23 16 39t38.5 16t38 -16t15.5 -39v-61q0 -23 -15.5 -38.5t-38 -15.5z" />
    <glyph glyph-name="Ograve" unicode="&#xd2;" 
d="M462 547q6 -11 6 -24v-369q0 -13 -6 -25l-30 -61q-4 -8 -11 -14l-30 -31q-7 -6 -15 -10l-61 -31q-12 -5 -24 -5h-62q-13 0 -24 5l-62 31q-7 4 -14 10l-30 31q-7 6 -11 14l-30 61q-6 12 -6 25v369q0 13 6 24l30 62q4 7 11 14l30 30q7 7 14 11l62 30q11 6 24 6h62
q13 0 24 -6l61 -31q8 -3 15 -10l30 -30q7 -7 11 -14zM359 167v343l-21 42l-18 18l-42 22h-36l-42 -22l-18 -18l-22 -42v-343l22 -43l18 -18l42 -21h36l42 21l18 18zM213 741l-92 154q-11 19 -5.5 40.5t24.5 33.5t41 6.5t33 -25.5l92 -153q12 -20 6.5 -41.5t-24.5 -33.5
q-13 -7 -28 -7q-31 0 -47 26z" />
    <glyph glyph-name="Ocircumflex" unicode="&#xd4;" 
d="M462 547q6 -11 6 -24v-369q0 -13 -6 -25l-31 -61q-3 -8 -10 -14l-30 -31q-7 -6 -15 -10l-61 -31q-11 -5 -24 -5h-62q-13 0 -24 5l-62 31q-7 4 -14 10l-30 31q-7 6 -11 14l-30 61q-6 12 -6 25v369q0 13 6 24l30 62q4 7 11 14l30 30q7 7 14 10l62 31q11 6 24 6h62
q12 0 24 -6l61 -30q8 -4 15 -11l30 -30q6 -7 10 -14zM359 167v343l-21 42l-18 18l-42 22h-36l-42 -22l-18 -18l-22 -42v-343l22 -43l18 -18l42 -21h36l42 21l18 18zM103 726q-17 14 -19.5 36.5t11.5 40.5l123 153q16 21 42 21t42 -21l123 -153q14 -18 11.5 -40.5t-20 -36.5
t-39.5 -11.5t-36 20.5l-81 101l-81 -101q-16 -20 -42 -20q-19 0 -34 11z" />
    <glyph glyph-name="Odieresis" unicode="&#xd6;" 
d="M462 547q6 -11 6 -24v-369q0 -13 -6 -25l-31 -61q-3 -8 -10 -14l-30 -31q-7 -6 -15 -10l-61 -31q-11 -5 -24 -5h-62q-13 0 -24 5l-62 31q-7 4 -14 10l-30 31q-7 6 -11 14l-30 61q-6 12 -6 25v369q0 13 6 24l30 62q4 7 11 14l30 30q7 7 14 11l62 30q11 6 24 6h62
q12 0 24 -6l61 -30q8 -4 15 -11l30 -30q6 -7 10 -14zM359 167v343l-21 42l-18 18l-42 22h-36l-42 -22l-18 -18l-22 -42v-343l22 -43l18 -18l42 -21h36l42 21l18 18zM167.5 715q-22.5 0 -38.5 15.5t-16 38.5v61q0 23 16 38.5t38.5 15.5t38.5 -15.5t16 -38.5v-61
q0 -23 -16 -38.5t-38.5 -15.5zM352.5 715q-22.5 0 -38.5 15.5t-16 38.5v61q0 23 16 38.5t38.5 15.5t38 -15.5t15.5 -38.5v-61q0 -23 -15.5 -38.5t-38 -15.5z" />
    <glyph glyph-name="multiply" unicode="&#xd7;" 
d="M336 308l85 -85q16 -16 16 -38.5t-16 -38.5t-38.5 -16t-38.5 16l-85 85l-84 -85q-16 -16 -38.5 -16t-38.5 16t-16 38.5t16 38.5l85 85l-85 84q-16 16 -16 38.5t16 38.5t38.5 16t38.5 -16l84 -85l85 85q16 16 38.5 16t38.5 -16t16 -38.5t-16 -38.5z" />
    <glyph glyph-name="Oslash" unicode="&#xd8;" 
d="M461 547q6 -11 6 -24v-369q0 -13 -6 -25l-31 -61q-3 -8 -10 -14l-30 -31q-7 -6 -15 -10l-61 -31q-12 -6 -24 -6h-62q-13 0 -24 6l-50 25v-1q-15 -30 -49 -30q-12 0 -24 6q-20 10 -27 31.5t3 41.5l18 37l-18 37q-6 12 -6 25v369q0 13 6 24l31 62q3 7 10 14l30 30
q7 7 15 11l61 30q11 6 24 6h62q13 0 24 -6l50 -25v1q10 20 31.5 27t41.5 -3t27 -31t-3 -41l-18 -38zM159 510v-249l156 311l-38 20h-36l-42 -22l-18 -18zM359 167v249l-156 -312l38 -19h36l42 21l18 18z" />
    <glyph glyph-name="Ugrave" unicode="&#xd9;" 
d="M413.5 700q22.5 0 38.5 -16t16 -38v-492q0 -13 -6 -25l-30 -61q-4 -8 -11 -14l-30 -31q-7 -6 -14 -10l-62 -31q-11 -5 -24 -5h-62q-12 0 -24 5l-62 31q-7 4 -14 10l-30 31q-7 6 -11 14l-30 61q-6 12 -6 25v492q0 22 16 38t38.5 16t38 -16t15.5 -38v-479l22 -43l18 -18
l42 -21h36l42 21l18 18l22 43v479q0 22 15.5 38t38 16zM214 741l-93 154q-11 19 -5.5 40.5t24.5 33.5t41 6.5t33 -25.5l93 -153q11 -20 5.5 -41.5t-24.5 -33.5q-13 -7 -28 -7q-31 0 -46 26z" />
    <glyph glyph-name="Ucircumflex" unicode="&#xdb;" 
d="M413.5 700q22.5 0 38.5 -16t16 -38v-492q0 -13 -6 -25l-31 -61q-3 -8 -10 -14l-30 -31q-7 -6 -14 -10l-62 -31q-11 -5 -24 -5h-62q-13 0 -24 5l-62 31q-7 4 -14 10l-30 31q-7 6 -10 14l-31 61q-6 12 -6 25v492q0 22 16 38t38.5 16t38 -16t15.5 -38v-479l22 -43l18 -18
l42 -21h36l42 21l18 18l22 43v479q0 22 15.5 38t38 16zM103.5 726q-17.5 14 -20 36.5t11.5 40.5l123 153q16 21 42 21t42 -21l123 -153q14 -18 11.5 -40.5t-19.5 -36.5q-15 -11 -34 -11q-26 0 -42 20l-81 101l-81 -101q-14 -18 -36 -20.5t-39.5 11.5z" />
    <glyph glyph-name="Udieresis" unicode="&#xdc;" 
d="M413.5 700q22.5 0 38.5 -16t16 -38v-492q0 -13 -6 -25l-31 -61q-3 -8 -10 -14l-30 -31q-7 -6 -15 -10l-61 -31q-11 -5 -24 -5h-62q-13 0 -24 5l-62 31q-7 4 -14 10l-30 31q-7 6 -11 14l-30 61q-6 12 -6 25v492q0 22 16 38t38.5 16t38 -16t15.5 -38v-479l22 -43l18 -18
l42 -21h36l42 21l18 18l22 43v479q0 22 15.5 38t38 16zM167.5 715q-22.5 0 -38.5 15.5t-16 38.5v61q0 23 16 38.5t38.5 15.5t38.5 -15.5t16 -38.5v-61q0 -23 -16 -38.5t-38.5 -15.5zM352.5 715q-22.5 0 -38.5 15.5t-16 38.5v61q0 23 16 38.5t38.5 15.5t38 -15.5t15.5 -38.5
v-61q0 -23 -15.5 -38.5t-38 -15.5z" />
    <glyph glyph-name="germandbls" unicode="&#xdf;" 
d="M431 376q-3 -8 -10 -15l-23 -23l23 -23q7 -6 11 -14l30 -61q6 -12 6 -25v-61q0 -13 -6 -24l-30 -62q-4 -8 -11 -14l-30 -31q-7 -6 -14 -10l-62 -31q-11 -5 -24 -5h-62q-22 0 -38 15.5t-16 38t16 38.5t38 16h49l42 21l18 18l22 43v35l-22 43l-18 18l-42 21h-49
q-22 0 -38 16t-16 38.5t16 38.5t38 16h49l42 21l18 18l21 42v36l-21 42l-18 18l-42 22h-36l-42 -22l-18 -18l-22 -42v-479q0 -23 -15.5 -38.5t-38 -15.5t-38.5 15.5t-16 38.5v492q0 13 6 24l30 62q4 7 11 14l30 30q7 7 14 11l62 30q11 6 24 6h62q13 0 24 -6l61 -30
q8 -4 15 -11l30 -30q7 -7 10 -14l31 -62q6 -11 6 -24v-62q0 -13 -6 -24z" />
    <glyph glyph-name="agrave" unicode="&#xe0;" 
d="M462 393q6 -11 6 -24v-338q0 -23 -16 -38.5t-38 -15.5q-34 0 -49 30l-50 -25q-11 -5 -24 -5h-62q-13 0 -24 5l-62 31q-7 4 -14 10l-30 31q-7 6 -11 14l-30 62q-6 11 -6 24v31q0 12 6 24l30 61q4 8 11 14l30 31q7 6 14 10l62 31q11 6 24 6h62q12 0 24 -6l44 -22v22l-16 34
l-34 17h-98l-50 -25q-20 -10 -41.5 -3t-31.5 27t-2.5 41.5t27.5 31.5l61 31q12 6 24 6h123q13 0 25 -6l61 -31q16 -8 24 -24zM359 167v5l-21 42l-18 18l-42 21h-36l-42 -21l-18 -18l-22 -42v-5l22 -43l18 -18l42 -21h36l42 21l18 18zM213 587l-92 154q-11 19 -5.5 41
t24.5 33.5t41 6t33 -24.5l92 -154q12 -19 6.5 -41t-24.5 -34q-13 -7 -28 -7q-31 0 -47 26z" />
    <glyph glyph-name="aacute" unicode="&#xe1;" 
d="M462 393q6 -11 6 -24v-338q0 -23 -16 -38.5t-38 -15.5q-34 0 -49 30l-50 -25q-11 -5 -24 -5h-62q-13 0 -24 5l-62 31q-7 4 -14 10l-30 31q-7 6 -11 14l-30 62q-6 11 -6 24v31q0 12 6 24l30 61q4 8 11 14l30 31q7 6 14 10l62 31q11 6 24 6h62q12 0 24 -6l44 -22v22l-16 34
l-34 17h-98l-50 -25q-20 -10 -41.5 -3t-31.5 27t-2.5 41.5t27.5 31.5l61 31q12 6 24 6h123q13 0 25 -6l61 -31q16 -8 24 -24zM359 167v5l-21 42l-18 18l-42 21h-36l-42 -21l-18 -18l-22 -42v-5l22 -43l18 -18l42 -21h36l42 21l18 18zM232 569q-19 11 -24.5 33t5.5 41l93 154
q11 19 33 24.5t41 -6t24.5 -33.5t-5.5 -41l-93 -154q-15 -26 -46 -26q-15 0 -28 8z" />
    <glyph glyph-name="acircumflex" unicode="&#xe2;" 
d="M462 393q6 -11 6 -24v-338q0 -23 -16 -38.5t-38 -15.5q-34 0 -49 30l-50 -25q-11 -5 -24 -5h-62q-13 0 -24 5l-62 31q-7 4 -14 10l-30 31q-7 6 -11 14l-30 62q-6 11 -6 24v31q0 12 6 24l30 61q4 8 11 14l30 31q7 6 14 10l62 31q11 6 24 6h62q12 0 24 -6l44 -22v22l-16 34
l-34 17h-98l-50 -25q-20 -10 -41.5 -3t-31.5 27t-2.5 41.5t27.5 31.5l61 31q12 6 24 6h123q13 0 25 -6l61 -31q16 -8 24 -24zM359 167v5l-21 42l-18 18l-42 21h-36l-42 -21l-18 -18l-22 -42v-5l22 -43l18 -18l42 -21h36l42 21l18 18zM103 573q-18 14 -20 36t12 40l123 154
q16 20 42 20t42 -20l123 -154q14 -18 11.5 -40t-20 -36t-39.5 -11.5t-36 19.5l-81 101l-81 -101q-16 -20 -42 -20q-19 0 -34 12z" />
    <glyph glyph-name="adieresis" unicode="&#xe4;" 
d="M462 393q6 -11 6 -24v-338q0 -23 -16 -38.5t-38 -15.5q-34 0 -49 30l-50 -25q-11 -5 -24 -5h-62q-13 0 -24 5l-62 31q-7 4 -14 10l-30 31q-7 6 -11 14l-30 62q-6 11 -6 24v31q0 12 6 24l30 61q4 8 11 14l30 31q7 6 14 10l62 31q11 6 24 6h62q12 0 24 -6l44 -22v22l-16 34
l-34 17h-98l-50 -25q-20 -10 -41.5 -3t-31.5 27t-2.5 41.5t27.5 31.5l61 31q12 6 24 6h123q13 0 25 -6l61 -31q16 -8 24 -24zM359 167v5l-21 42l-18 18l-42 21h-36l-42 -21l-18 -18l-22 -42v-5l22 -43l18 -18l42 -21h36l42 21l18 18zM167.5 561q-22.5 0 -38.5 16t-16 38v62
q0 22 16 38t38.5 16t38.5 -16t16 -38v-62q0 -22 -16 -38t-38.5 -16zM352.5 561q-22.5 0 -38.5 16t-16 38v62q0 22 16 38t38.5 16t38 -16t15.5 -38v-62q0 -22 -15.5 -38t-38 -16z" />
    <glyph glyph-name="ccedilla" unicode="&#xe7;" 
d="M375 131q16 15 38.5 15t38.5 -15.5t16 -38t-16 -38.5l-31 -31q-6 -6 -14 -10l-61 -31q-12 -5 -25 -5h-7v-38q0 -17 -9 -31l-61 -92q-16 -24 -46 -24q-16 0 -30 9q-18 13 -22.5 35t7.5 40l53 79v27h-1l-62 31q-7 4 -14 10l-30 31q-7 6 -11 14l-30 62q-6 11 -6 24v184
q0 13 6 25l30 61q4 8 11 14l30 31q7 6 14 10l62 31q11 6 24 6h92q13 0 25 -6l61 -31q8 -4 14 -10l31 -31q16 -16 16 -38.5t-16 -38t-38.5 -15.5t-38.5 15l-24 25l-42 21h-67l-42 -21l-18 -18l-22 -43v-158l22 -43l18 -18l42 -21h67l42 21z" />
    <glyph glyph-name="egrave" unicode="&#xe8;" 
d="M451 130.5q16 -15.5 16 -38t-16 -38.5l-31 -31q-6 -6 -14 -10l-61 -31q-12 -5 -24 -5h-93q-13 0 -24 5l-62 31q-7 4 -14 10l-30 31q-7 6 -11 14l-30 62q-6 11 -6 24v184q0 13 6 25l30 61q4 8 11 14l30 31q7 6 14 10l62 31q11 5 24 5h62q13 0 24 -5l62 -31q7 -4 14 -10
l30 -31q7 -6 11 -14l30 -61q6 -12 6 -25v-92q0 -22 -16 -38t-38 -16h-254v-25l22 -43l18 -18l42 -21h67l42 21l24 25q16 15 38.5 15t38.5 -15.5zM159 325v-25h200v25l-22 43l-18 18l-42 21h-36l-42 -21l-18 -18zM212 587l-92 154q-11 19 -5.5 41t24.5 33.5t41 6t33 -24.5
l93 -154q11 -19 5.5 -41t-24.5 -34q-13 -7 -28 -7q-31 0 -47 26z" />
    <glyph glyph-name="eacute" unicode="&#xe9;" 
d="M414 192h-254v-25l22 -43l18 -18l42 -21h67l42 21l24 25q16 15 38.5 15t38.5 -15.5t16 -38t-16 -38.5l-31 -31q-6 -6 -14 -10l-61 -31q-12 -5 -24 -5h-93q-13 0 -24 5l-62 31q-7 4 -14 10l-30 31q-7 6 -11 14l-30 61q-6 12 -6 25v184q0 13 6 25l30 61q4 8 11 14l30 31
q7 6 14 10l62 31q11 5 24 5h62q13 0 24 -5l62 -31q7 -4 14 -10l30 -31q7 -6 11 -14l30 -61q6 -12 6 -25v-92q0 -22 -16 -38t-38 -16zM160 325v-25h200v25l-22 43l-18 18l-42 21h-36l-42 -21l-18 -18zM232 568q-19 12 -24.5 34t6.5 41l92 154q11 19 33 24.5t41 -6t24.5 -33.5
t-5.5 -41l-92 -154q-16 -26 -47 -26q-15 0 -28 7z" />
    <glyph glyph-name="ecircumflex" unicode="&#xea;" 
d="M414 192h-254v-25l22 -43l18 -18l42 -21h67l42 21l24 25q16 15 38.5 15t38.5 -15.5t16 -38t-16 -38.5l-31 -31q-6 -6 -14 -10l-61 -31q-12 -5 -25 -5h-92q-13 0 -24 5l-62 31q-7 4 -14 10l-30 31q-7 6 -11 14l-30 61q-6 12 -6 25v184q0 13 6 25l30 61q4 8 11 14l30 31
q7 6 14 10l62 31q11 5 24 5h62q13 0 24 -5l62 -31q7 -4 14 -10l30 -31q7 -6 11 -14l30 -61q6 -12 6 -25v-92q0 -22 -16 -38t-38 -16zM160 325v-25h199v25l-21 43l-18 18l-42 21h-36l-42 -21l-18 -18zM103 573q-17 14 -19.5 36t11.5 40l123 154q16 20 42 20t42 -20l123 -154
q14 -18 11.5 -40t-20 -36t-39.5 -11.5t-36 19.5l-81 101l-81 -101q-16 -20 -42 -20q-19 0 -34 12z" />
    <glyph glyph-name="edieresis" unicode="&#xeb;" 
d="M414 192h-254v-25l22 -43l18 -18l42 -21h67l42 21l24 25q16 16 38.5 15.5t38.5 -16t16 -38t-16 -38.5l-31 -31q-6 -6 -14 -10l-61 -31q-12 -5 -25 -5h-92q-13 0 -24 5l-62 31q-7 4 -14 10l-30 31q-7 6 -11 14l-30 62q-6 11 -6 24v184q0 13 6 25l30 61q4 8 11 14l30 31
q7 6 14 10l62 31q11 5 24 5h62q12 0 24 -5l61 -31q8 -4 15 -10l30 -31q7 -6 11 -14l30 -61q6 -12 6 -25v-92q0 -22 -16 -38t-38 -16zM160 325v-25h199v25l-21 43l-18 18l-42 21h-36l-42 -21l-18 -18zM167.5 561q-22.5 0 -38 16t-15.5 38v62q0 22 15.5 38t38 16t38.5 -16
t16 -38v-62q0 -22 -16 -38t-38.5 -16zM352.5 561q-22.5 0 -38.5 16t-16 38v62q0 22 16 38t38.5 16t38 -16t15.5 -38v-62q0 -22 -15.5 -38t-38 -16z" />
    <glyph glyph-name="igrave" unicode="&#xec;" 
d="M414 85q22 0 38 -16t16 -38.5t-16 -38t-38 -15.5h-308q-22 0 -38 15.5t-16 38t16 38.5t38 16h100v322h-100q-22 0 -38 16t-16 38.5t16 38.5t38 16h154q22 0 38 -16t16 -39v-376h100zM213 587l-92 154q-11 19 -5.5 41t24.5 33.5t41 6t33 -24.5l92 -154q12 -19 6.5 -41
t-24.5 -34q-13 -7 -28 -7q-31 0 -47 26z" />
    <glyph glyph-name="iacute" unicode="&#xed;" 
d="M414 85q22 0 38 -16t16 -38.5t-16 -38t-38 -15.5h-308q-22 0 -38 15.5t-16 38t16 38.5t38 16h100v322h-100q-22 0 -38 16t-16 38.5t16 38.5t38 16h154q22 0 38 -16t16 -39v-376h100zM232 568q-19 12 -24.5 34t6.5 41l92 154q11 19 33 24.5t41 -6t24.5 -33.5t-5.5 -41
l-92 -154q-16 -26 -47 -26q-15 0 -28 7z" />
    <glyph glyph-name="icircumflex" unicode="&#xee;" 
d="M414 85q22 0 38 -16t16 -38.5t-16 -38t-38 -15.5h-308q-22 0 -38 15.5t-16 38t16 38.5t38 16h100v322h-100q-22 0 -38 16t-16 38.5t16 38.5t38 16h154q22 0 38 -16t16 -39v-376h100zM103 573q-17 14 -19.5 36t11.5 40l123 154q16 20 42 20t42 -20l123 -154
q14 -18 11.5 -40t-20 -36t-39.5 -11.5t-36 19.5l-81 101l-81 -101q-16 -20 -42 -20q-19 0 -34 12z" />
    <glyph glyph-name="idieresis" unicode="&#xef;" 
d="M414 85q22 0 38 -16t16 -38.5t-16 -38t-38 -15.5h-308q-22 0 -38 15.5t-16 38t16 38.5t38 16h100v322h-100q-22 0 -38 16t-16 38.5t16 38.5t38 16h154q22 0 38 -16t16 -39v-376h100zM167.5 561q-22.5 0 -38.5 16t-16 38v62q0 22 16 38t38.5 16t38.5 -16t16 -38v-62
q0 -22 -16 -38t-38.5 -16zM352.5 561q-22.5 0 -38.5 16t-16 38v62q0 22 16 38t38.5 16t38 -16t15.5 -38v-62q0 -22 -15.5 -38t-38 -16z" />
    <glyph glyph-name="ograve" unicode="&#xf2;" 
d="M462 363q6 -12 6 -25v-184q0 -13 -6 -24l-30 -62q-4 -8 -11 -14l-30 -31q-7 -6 -14 -10l-62 -31q-11 -5 -24 -5h-62q-13 0 -24 5l-62 31q-7 4 -14 10l-30 31q-7 6 -11 14l-30 62q-6 11 -6 24v184q0 13 6 25l30 61q4 8 11 14l30 31q7 6 14 10l62 31q11 5 24 5h62
q13 0 24 -5l62 -31q7 -4 14 -10l30 -31q7 -6 11 -14zM360 167v158l-22 43l-18 18l-42 21h-36l-42 -21l-18 -18l-22 -43v-158l22 -43l18 -18l42 -21h36l42 21l18 18zM213 587l-92 154q-11 19 -5.5 41t24.5 33.5t41 6t33 -24.5l92 -154q12 -19 6.5 -41t-24.5 -34
q-13 -7 -28 -7q-31 0 -47 26z" />
    <glyph glyph-name="ocircumflex" unicode="&#xf4;" 
d="M462 363q6 -12 6 -25v-184q0 -13 -6 -24l-30 -62q-4 -8 -11 -14l-30 -31q-7 -6 -14 -10l-62 -31q-11 -5 -24 -5h-62q-13 0 -24 5l-62 31q-7 4 -14 10l-30 31q-7 6 -11 14l-30 61q-6 12 -6 25v184q0 13 6 25l30 61q4 8 11 14l30 31q7 6 14 10l62 31q11 5 24 5h62
q13 0 24 -5l62 -31q7 -4 14 -10l30 -31q7 -6 11 -14zM359 167v158l-21 43l-18 18l-42 21h-36l-42 -21l-18 -18l-22 -43v-158l22 -43l18 -18l42 -21h36l42 21l18 18zM103 573q-17 14 -19.5 36t11.5 40l123 154q16 20 42 20t42 -20l123 -154q14 -18 11.5 -40t-20 -36
t-39.5 -11.5t-36 19.5l-81 101l-81 -101q-16 -20 -42 -20q-19 0 -34 12z" />
    <glyph glyph-name="odieresis" unicode="&#xf6;" 
d="M462 363q6 -12 6 -25v-184q0 -13 -6 -24l-30 -62q-4 -8 -11 -14l-30 -31q-7 -6 -15 -10l-61 -31q-11 -5 -24 -5h-62q-13 0 -24 5l-62 31q-7 4 -14 10l-30 31q-7 6 -11 14l-30 62q-6 11 -6 24v184q0 13 6 25l30 61q4 8 11 14l30 31q7 6 14 10l62 31q11 5 24 5h62
q12 0 24 -5l61 -31q8 -4 15 -10l30 -31q7 -6 11 -14zM360 167v158l-22 43l-18 18l-42 21h-36l-42 -21l-18 -18l-22 -43v-158l22 -43l18 -18l42 -21h36l42 21l18 18zM167.5 561q-22.5 0 -38.5 16t-16 38v62q0 22 16 38t38.5 16t38.5 -16t16 -38v-62q0 -22 -16 -38t-38.5 -16z
M352.5 561q-22.5 0 -38.5 16t-16 38v62q0 22 16 38t38.5 16t38 -16t15.5 -38v-62q0 -22 -15.5 -38t-38 -16z" />
    <glyph glyph-name="divide" unicode="&#xf7;" 
d="M414 362q22 0 38 -16t16 -38.5t-16 -38.5t-38 -16h-308q-22 0 -38 16t-16 38.5t16 38.5t38 16h308zM260 407q-22 0 -38 16t-16 38v62q0 22 16 38t38 16t38 -16t16 -38v-62q0 -22 -16 -38t-38 -16zM260 208q22 0 38 -16t16 -38v-62q0 -22 -16 -38t-38 -16t-38 16t-16 38
v62q0 22 16 38t38 16z" />
    <glyph glyph-name="oslash" unicode="&#xf8;" 
d="M462 363q6 -12 6 -25v-184q0 -13 -6 -24l-31 -62q-4 -8 -10 -14l-30 -31q-7 -6 -14 -10l-62 -31q-12 -6 -24 -6h-62q-13 0 -24 6l-49 25l-6 -8q-16 -23 -44 -23q-17 0 -31 11q-19 13 -22.5 35t9.5 40l17 24l-21 43q-6 12 -6 25v184q0 13 6 25l30 61q4 8 11 14l30 31
q7 6 14 10l62 31q11 6 24 6h62q13 0 24 -6l49 -25l6 8q13 18 35 21.5t40.5 -9.5t22 -35t-9.5 -40l-17 -24zM160 200l140 196l-22 11h-36l-42 -21l-18 -18l-22 -43v-125zM359 167v125l-139 -196l22 -11h36l42 21l18 18z" />
    <glyph glyph-name="ugrave" unicode="&#xf9;" 
d="M413.5 515q22.5 0 38.5 -15.5t16 -38.5v-430q0 -23 -16 -38.5t-38 -15.5q-34 0 -49 30l-50 -25q-12 -5 -24 -5h-62q-13 0 -24 5l-62 31q-7 4 -14 10l-30 31q-7 6 -11 14l-30 62q-6 11 -6 24v307q0 23 16 38.5t38.5 15.5t38 -15.5t15.5 -38.5v-294l22 -43l18 -18l42 -21
h36l42 21l18 18l22 43v294q0 23 15.5 38.5t38 15.5zM213 587l-92 154q-11 19 -5.5 41t24.5 33.5t41 6t33 -24.5l93 -154q11 -19 5.5 -41t-24.5 -34q-13 -7 -28 -7q-31 0 -47 26z" />
    <glyph glyph-name="uacute" unicode="&#xfa;" 
d="M413.5 515q22.5 0 38.5 -15.5t16 -38.5v-430q0 -23 -16 -38.5t-38 -15.5q-34 0 -49 30l-50 -25q-11 -5 -24 -5h-62q-13 0 -24 5l-62 31q-7 4 -14 10l-30 31q-7 6 -11 14l-30 62q-6 11 -6 24v307q0 23 16 38.5t38.5 15.5t38 -15.5t15.5 -38.5v-294l22 -43l18 -18l42 -21
h36l42 21l18 18l22 43v294q0 23 15.5 38.5t38 15.5zM232 569q-19 11 -24.5 33t5.5 41l93 154q11 19 33 24.5t41 -6t24.5 -33.5t-5.5 -41l-92 -154q-16 -26 -47 -26q-15 0 -28 8z" />
    <glyph glyph-name="ucircumflex" unicode="&#xfb;" 
d="M413.5 515q22.5 0 38.5 -15.5t16 -38.5v-430q0 -23 -16 -38.5t-38 -15.5q-34 0 -49 30l-50 -25q-11 -5 -24 -5h-62q-13 0 -24 5l-62 31q-7 4 -14 10l-30 31q-7 6 -11 14l-30 62q-6 11 -6 24v307q0 23 16 38.5t38.5 15.5t38 -15.5t15.5 -38.5v-294l22 -43l18 -18l42 -21
h36l42 21l18 18l22 43v294q0 23 15.5 38.5t38 15.5zM103 573q-17 14 -19.5 36t11.5 40l123 154q16 20 42 20t42 -20l123 -154q14 -18 11.5 -40t-20 -36t-39.5 -11.5t-36 19.5l-81 101l-81 -101q-16 -20 -42 -20q-19 0 -34 12z" />
    <glyph glyph-name="udieresis" unicode="&#xfc;" 
d="M413.5 515q22.5 0 38.5 -15.5t16 -38.5v-430q0 -23 -16 -38.5t-38 -15.5q-34 0 -49 30l-50 -25q-12 -5 -24 -5h-62q-13 0 -24 5l-62 31q-7 4 -14 10l-30 31q-7 6 -11 14l-30 62q-6 11 -6 24v307q0 23 16 38.5t38.5 15.5t38 -15.5t15.5 -38.5v-294l22 -43l18 -18l42 -21
h36l42 21l18 18l22 43v294q0 23 15.5 38.5t38 15.5zM167.5 561q-22.5 0 -38.5 16t-16 38v62q0 22 16 38t38.5 16t38.5 -16t16 -38v-62q0 -22 -16 -38t-38.5 -16zM352.5 561q-22.5 0 -38.5 16t-16 38v62q0 22 16 38t38.5 16t38 -16t15.5 -38v-62q0 -22 -15.5 -38t-38 -16z
" />
    <glyph glyph-name="ydieresis" unicode="&#xff;" 
d="M413.5 516q22.5 0 38.5 -16t16 -39v-492q0 -13 -6 -24l-30 -62q-4 -7 -11 -14l-30 -30q-7 -7 -14 -10l-62 -31q-11 -6 -24 -6h-93q-12 0 -24 6l-61 30q-8 4 -14 11l-31 30q-16 16 -16 38.5t16 38.5t38.5 16t38.5 -16l24 -24l42 -22h67l42 22l18 18l22 42v23l-45 -23
q-11 -6 -24 -6h-62q-13 0 -24 6l-62 31q-7 4 -14 10l-30 31q-7 6 -11 14l-30 62q-6 11 -6 24v307q0 23 16 39t38.5 16t38 -16t15.5 -39v-294l22 -43l18 -18l42 -21h36l42 21l18 18l22 43v294q0 23 15.5 39t38 16zM167.5 561q-22.5 0 -38.5 16t-16 38v62q0 22 16 38t38.5 16
t38.5 -16t16 -38v-62q0 -22 -16 -38t-38.5 -16zM352.5 561q-22.5 0 -38.5 16t-16 38v62q0 22 16 38t38.5 16t38 -16t15.5 -38v-62q0 -22 -15.5 -38t-38 -16z" />
    <glyph glyph-name="Ydieresis" unicode="&#x178;" 
d="M413.5 700q22.5 0 38.5 -16t16 -38v-185q0 -13 -6 -24l-30 -62q-4 -7 -11 -14l-30 -30q-7 -7 -14 -11l-62 -30q-1 0 -1 -1v-258q0 -23 -16 -39t-38 -16t-38 16t-16 39v258q0 1 -1 1l-62 30q-7 4 -14 11l-30 30q-7 7 -11 14l-30 62q-6 11 -6 24v185q0 22 16 38t38.5 16
t38 -16t15.5 -38v-172l22 -42l18 -18l42 -21h36l42 21l18 18l22 42v172q0 22 15.5 38t38 16zM167.5 715q-22.5 0 -38 15.5t-15.5 38.5v61q0 23 15.5 39t38 16t38.5 -16t16 -39v-61q0 -23 -16 -38.5t-38.5 -15.5zM352.5 715q-22.5 0 -38.5 15.5t-16 38.5v61q0 23 16 39
t38.5 16t38 -16t15.5 -39v-61q0 -23 -15.5 -38.5t-38 -15.5z" />
    <glyph glyph-name="florin" unicode="&#x192;" 
d="M360 715l-18 -1l-14 -198h54q22 0 38 -16t16 -38.5t-16 -38.5t-38 -16h-61l-39 -534q-1 -20 -15 -34l-31 -31q-16 -16 -38 -16h-62q-22 0 -38 16l-31 31q-16 16 -16 38t16 38t38.5 16t38.5 -16l14 -15l18 1l36 506h-45q-23 0 -38.5 16t-15.5 38.5t15.5 38t38.5 15.5h52
l17 227q1 20 15 34l31 31q16 16 39 16h61q22 0 38 -16l31 -31q16 -16 16 -38t-16 -38t-38.5 -16t-38.5 16z" />
    <glyph glyph-name="uni3a9" unicode="&#x3a9;" 
d="M407 105l-31 -16v-4h38q22 0 38 -16t16 -38.5t-16 -38t-38 -15.5h-92q-23 0 -39 15.5t-16 38.5v92q0 33 30 48l46 23l17 34v97l-22 43l-18 18l-42 21h-36l-42 -21l-18 -18l-22 -43v-97l17 -34l46 -23q30 -14 30 -48v-92q0 -23 -16 -38.5t-39 -15.5h-92q-22 0 -38 15.5
t-16 38t16 38.5t38 16h38v4l-31 16q-16 8 -25 25l-30 61q-6 11 -6 24v123q0 13 6 25l30 61q4 8 11 14l30 31q7 6 14 10l62 31q11 5 24 5h62q13 0 24 -5l62 -31q7 -4 14 -10l30 -31q7 -6 11 -14l30 -61q6 -12 6 -25v-123q0 -13 -6 -24l-30 -61q-9 -17 -25 -25z" />
    <glyph glyph-name="pi" unicode="&#x3c0;" 
d="M414 116q22 0 38 -16t16 -38.5t-16 -38.5t-38 -16h-31q-22 0 -38 16l-31 31q-16 16 -16 38v315h-76v-376q0 -23 -16 -38.5t-38.5 -15.5t-38 15.5t-15.5 38.5v376h-8q-22 0 -38 16t-16 38.5t16 38t38 15.5h308q22 0 38 -15.5t16 -38t-16 -38.5t-38 -16h-8v-291h8z" />
    <glyph glyph-name="endash" unicode="&#x2013;" 
d="M106 253q-22 0 -38 16t-16 38.5t16 38.5t38 16h308q22 0 38 -16t16 -38.5t-16 -38.5t-38 -16h-308z" />
    <glyph glyph-name="emdash" unicode="&#x2014;" 
d="M106 253q-22 0 -38 16t-16 38.5t16 38.5t38 16h308q22 0 38 -16t16 -38.5t-16 -38.5t-38 -16h-308z" />
    <glyph glyph-name="quoteleft" unicode="&#x2018;" 
d="M314 694q20 -10 27 -31t-3 -41l-56 -112v-49q0 -22 -15.5 -38t-38 -16t-38.5 16t-16 38v62q0 13 6 24l61 123q10 20 31.5 27t41.5 -3z" />
    <glyph glyph-name="quoteright" unicode="&#x2019;" 
d="M290.5 700q22.5 0 38.5 -16t16 -38v-62q0 -12 -6 -24l-61 -123q-15 -30 -49 -30q-13 0 -24 6q-20 10 -27 31t3 42l55 111v49q0 22 16 38t38.5 16z" />
    <glyph glyph-name="quotedblleft" unicode="&#x201c;" 
d="M406.5 694q20.5 -10 27.5 -31t-3 -41l-56 -112v-49q0 -22 -16 -38t-38.5 -16t-38.5 16t-16 38v62q0 13 6 24l62 123q10 20 31 27t41.5 -3zM222 694q20 -10 27 -31t-3 -41l-56 -112v-49q0 -22 -15.5 -38t-38 -16t-38.5 16t-16 38v62q0 13 6 24l61 123q10 20 31.5 27
t41.5 -3z" />
    <glyph glyph-name="quotedblright" unicode="&#x201d;" 
d="M197.5 700q22.5 0 38.5 -16t16 -38v-62q0 -12 -6 -24l-61 -123q-15 -30 -49 -30q-12 0 -24 6q-20 10 -27 31t3 42l56 111v49q0 22 15.5 38t38 16zM382.5 700q22.5 0 38 -16t15.5 -38v-62q0 -13 -5 -24l-62 -123q-15 -30 -48 -30q-13 0 -25 6q-20 10 -27 31t3 42l56 111
v49q0 22 16 38t38.5 16z" />
    <glyph glyph-name="dagger" unicode="&#x2020;" 
d="M414 608q22 0 38 -16t16 -38.5t-16 -38.5t-38 -16h-100v-561q0 -22 -16 -38t-38 -16t-38 16t-16 38v561h-100q-22 0 -38 16t-16 38.5t16 38.5t38 16h100v130q0 22 16 38t38 16t38 -16t16 -38v-130h100z" />
    <glyph glyph-name="daggerdbl" unicode="&#x2021;" 
d="M414 85q22 0 38 -16t16 -38.5t-16 -38t-38 -15.5h-100v-131q0 -22 -16 -38t-38 -16t-38 16t-16 38v131h-100q-22 0 -38 15.5t-16 38t16 38.5t38 16h100v322h-100q-22 0 -38 16t-16 38.5t16 38.5t38 16h100v130q0 22 16 38t38 16t38 -16t16 -38v-130h100q22 0 38 -16
t16 -38.5t-16 -38.5t-38 -16h-100v-322h100z" />
    <glyph glyph-name="bullet" unicode="&#x2022;" 
d="M390 407q16 -16 16 -38v-123q0 -22 -16 -38l-31 -31q-16 -16 -38 -16h-123q-22 0 -38 16l-31 31q-16 16 -16 38v123q0 22 16 38l31 31q16 16 38 16h123q22 0 38 -16z" />
    <glyph glyph-name="ellipsis" unicode="&#x2026;" 
d="M106.5 146q22.5 0 38 -15.5t15.5 -38.5v-61q0 -23 -15.5 -39t-38 -16t-38.5 16t-16 39v61q0 23 16 38.5t38.5 15.5zM260 146q22 0 38 -15.5t16 -38.5v-61q0 -23 -16 -39t-38 -16t-38 16t-16 39v61q0 23 16 38.5t38 15.5zM413.5 146q22.5 0 38.5 -15.5t16 -38.5v-61
q0 -23 -16 -39t-38.5 -16t-38 16t-15.5 39v61q0 23 15.5 38.5t38 15.5z" />
    <glyph glyph-name="guilsinglleft" unicode="&#x2039;" 
d="M414 362q22 0 38 -16t16 -38.5t-16 -38.5t-38 -16h-177l61 -61q16 -16 16 -38.5t-16 -38t-38 -15.5t-38 15l-154 154q-4 4 -7 8q0 1 -0.5 1.5l-0.5 0.5q-3 5 -4 8l-0.5 1t-0.5 2q-2 5 -2 7q-1 5 -1 10.5t1 10.5q0 2 2 7q0 1 0.5 2l0.5 1q1 3 4 8l0.5 0.5t0.5 1.5q3 4 7 8
l154 154q16 15 38 15t38 -15.5t16 -38t-16 -38.5l-61 -61h177z" />
    <glyph glyph-name="guilsinglright" unicode="&#x203a;" 
d="M459 277q-3 -4 -7 -8l-154 -154q-16 -16 -38 -16t-38 16t-16 38.5t16 38.5l61 61h-177q-22 0 -38 16t-16 38.5t16 38.5t38 16h177l-61 61q-16 16 -16 38.5t16 38t38 15.5t38 -15l154 -154q4 -4 7 -8q0 -1 0.5 -1.5l0.5 -0.5q3 -5 4 -8l0.5 -1t0.5 -2q1 -5 2 -7
q1 -5 1 -10.5t-1 -10.5q-1 -2 -2 -7q0 -1 -0.5 -2l-0.5 -1q-1 -3 -4 -8l-0.5 -0.5t-0.5 -1.5z" />
    <glyph glyph-name="Euro" unicode="&#x20ac;" 
d="M414 223h-192v-56l21 -43l18 -18l43 -21h35l50 25q21 10 42 3t31 -27t3 -41.5t-27 -31.5l-62 -31q-11 -6 -24 -6h-61q-13 0 -25 6l-61 31q-8 4 -14 10l-31 31q-6 6 -10 14l-31 61q-6 12 -6 25v69h-7q-22 0 -38 15.5t-16 38t16 38.5t38 16h7v15h-7q-22 0 -38 15.5t-16 38
t16 38.5t38 16h7v69q0 13 6 24l31 62q4 7 10 14l31 30q6 7 14 11l61 30q12 6 25 6h61q13 0 24 -6l62 -30q20 -11 27 -32t-3 -41t-31 -27.5t-42 3.5l-50 25h-35l-43 -22l-18 -18l-21 -42v-56h192q22 0 38 -16t16 -38.5t-16 -38t-38 -15.5h-192v-15h192q22 0 38 -16t16 -38.5
t-16 -38t-38 -15.5z" />
    <glyph glyph-name="Delta" unicode="&#x2206;" 
d="M467 104q1 -6 1 -12v-61q0 -23 -16 -39t-38 -16h-308q-22 0 -38 16t-16 39v61q0 6 1 12l123 554q4 18 19 30t34 12h62q19 0 34 -12t19 -30zM360 85v1l-100 448l-100 -449h200z" />
    <glyph glyph-name="product" unicode="&#x220f;" 
d="M414 700q22 0 38 -16t16 -38.5t-16 -38t-38 -15.5h-8v-561q0 -23 -15.5 -39t-38 -16t-38.5 16t-16 39v561h-76v-561q0 -23 -16 -39t-38.5 -16t-38 16t-15.5 39v561h-8q-22 0 -38 15.5t-16 38t16 38.5t38 16h308z" />
    <glyph glyph-name="summation" unicode="&#x2211;" 
d="M414 85q22 0 38 -16t16 -38.5t-16 -38t-38 -15.5h-308q-22 0 -38 15.5t-16 38.5v61q0 21 13 36l184 210l-184 211q-13 15 -13 35v62q0 22 16 38t38 16h308q22 0 38 -16t16 -38.5t-16 -38t-38 -15.5h-242l190 -218q14 -15 14 -35.5t-14 -35.5l-190 -218h242z" />
    <glyph glyph-name="radical" unicode="&#x221a;" 
d="M423 730q22 -4 34.5 -23t8.5 -41l-123 -645q-4 -20 -19 -32t-34 -12h-62q-18 0 -33 11.5t-19 29.5l-45 180h-1q-21 -11 -42 -3.5t-31 27.5t-3 41.5t27 31.5l62 30q23 12 46.5 1t29.5 -36l37 -147l103 544q5 22 23.5 34.5t40.5 8.5z" />
    <glyph glyph-name="integral" unicode="&#x222b;" 
d="M451 776q16 -16 16 -38t-16 -38t-38.5 -16t-38.5 16l-14 15l-18 -1l-60 -841q-1 -20 -15 -34l-31 -31q-16 -16 -38 -16h-62q-22 0 -38 16l-31 31q-16 16 -16 38t16 38t38.5 16t38.5 -16l14 -15l18 1l60 841q1 20 15 34l31 31q16 16 39 16h61q23 0 38 -16z" />
    <glyph glyph-name="approxequal" unicode="&#x2248;" 
d="M105.5 346q-22.5 0 -38.5 15.5t-16 38t16 38.5l61 62q16 15 39 15h31q12 0 24 -5l108 -55l44 45q16 15 38.5 15t38.5 -15.5t16 -38t-16 -38.5l-61 -62q-16 -16 -39 -16h-30q-13 0 -25 6l-108 54l-44 -44q-16 -15 -38.5 -15zM374 284q16 16 38.5 16t38.5 -15.5t16 -38
t-16 -38.5l-61 -62q-16 -16 -39 -16h-30q-13 0 -25 6l-108 54l-44 -44q-16 -16 -38.5 -16t-38.5 16t-16 38.5t16 38.5l61 61q16 16 39 16h31q12 0 24 -5l108 -55z" />
    <glyph glyph-name="notequal" unicode="&#x2260;" 
d="M414 270q22 0 38 -16t16 -38.5t-16 -38.5t-38 -16h-146l-49 -147q-5 -17 -19.5 -27.5t-31.5 -10.5q-9 0 -17 3q-22 7 -32 27.5t-3 41.5l38 113h-48q-22 0 -38 16t-16 38.5t16 38.5t38 16h84l25 76h-109q-22 0 -38 15.5t-16 38t16 38.5t38 16h146l49 147q7 22 27 32
t41.5 3t31.5 -27.5t3 -41.5l-38 -113h48q22 0 38 -16t16 -38.5t-16 -38t-38 -15.5h-84l-26 -76h110z" />
    <glyph glyph-name="lessequal" unicode="&#x2264;" 
d="M106 253q-17 0 -30.5 9.5t-19.5 25.5t-2.5 32.5t16.5 27.5l307 277q17 15 39.5 13.5t37.5 -18t14 -39t-18 -37.5l-202 -182h166q22 0 38 -16t16 -38.5t-16 -38.5t-38 -16h-308zM414 177q22 0 38 -16t16 -38t-16 -38t-38 -16h-308q-22 0 -38 16t-16 38t16 38t38 16h308z
" />
    <glyph glyph-name="greaterequal" unicode="&#x2265;" 
d="M51 307.5q0 22.5 16 38.5t38 16h166l-202 182q-17 15 -18 37.5t14 39t37.5 18t39.5 -13.5l307 -277q13 -11 16.5 -27.5t-2.5 -32.5t-19.5 -25.5t-30.5 -9.5h-308q-22 0 -38 16t-16 38.5zM413 177q22 0 38 -16t16 -38t-16 -38t-38 -16h-308q-22 0 -38 16t-16 38t16 38
t38 16h308z" />
    <glyph glyph-name="lozenge" unicode="&#x25ca;" 
d="M464 358q4 -9 4 -20v-61q0 -11 -4 -20l-123 -308q-6 -15 -20 -24.5t-30 -9.5h-62q-16 0 -30 9.5t-20 24.5l-123 308q-4 9 -4 20v61q0 11 4 20l123 308q6 15 20 24.5t30 9.5h62q16 0 30 -9.5t20 -24.5zM360 287v41l-100 249l-100 -249v-41l100 -249z" />
    <glyph glyph-name="unif8ff" unicode="&#xf8ff;" 
d="M406 238l45 -46q13 -12 15.5 -29.5t-5.5 -32.5l-30 -62q-4 -8 -11 -14l-61 -62q-13 -12 -30 -15t-33 5l-37 19l-37 -19q-12 -5 -24 -5q-23 0 -39 15l-61 62q-7 6 -11 14l-30 62q-6 11 -6 24v215q0 13 6 24l30 62q4 8 11 14l61 61q13 13 30 15.5t33 -4.5l37 -19l37 19
q16 7 33 4.5t30 -15.5l61 -61q7 -6 11 -14l30 -62q8 -15 5.5 -32.5t-15.5 -29.5l-45 -46v-47zM313 177q-16 16 -16 38v92q0 23 16 39l34 34l-10 18l-27 28l-27 -13q-24 -12 -48 0l-27 13l-27 -28l-21 -42v-189l21 -43l27 -27l27 13q11 6 24 6t24 -6l27 -13l27 27l10 19z
M229 570q-19 12 -23.5 34t8.5 41l61 92q13 19 35 23.5t40.5 -8t23 -34.5t-7.5 -41l-62 -92q-16 -24 -45 -24q-16 0 -30 9z" />
  </font>
</defs>
</svg>
